<?xml version="1.0" standalone="no"?>
<!DOCTYPE svg PUBLIC "-//W3C//DTD SVG 1.1//EN" "http://www.w3.org/Graphics/SVG/1.1/DTD/svg11.dtd" >
<!--
2013-9-30: Created.
-->
<svg>
<metadata>
Created by iconfont
</metadata>
<defs>

<font id="iconfont" horiz-adv-x="1024" >
  <font-face
    font-family="iconfont"
    font-weight="500"
    font-stretch="normal"
    units-per-em="1024"
    ascent="896"
    descent="-128"
  />
    <missing-glyph />
    
    <glyph glyph-name="naozhong" unicode="&#58939;" d="M519.659447 291.655961 519.659447 533.701646c0 2.290159-0.456395 4.473895-1.283226 6.460132-2.477424 5.959735-8.275477 10.154267-15.033391 10.154267-2.958378 0-5.583159-1.020236-7.975649-2.422166-3.077082-1.804089-5.671163-4.378727-7.063883-7.732102-0.826831-1.986237-1.283226-4.169973-1.283226-6.460132l0-255.773338 0-0.002047 135.329175-137.615241c3.186576-3.25309 7.361665-4.872984 11.537777-4.872984 4.175089 0 8.350179 1.620917 11.537777 4.872984 6.375198 6.473435 6.375198 16.98279 0 23.442922L519.659447 291.655961zM262.678608-52.218924c-1.131777 1.153266-2.495844 1.853208-3.834328 2.594081-2.415003 1.341554-4.988618 2.260483-7.667633 2.260483l0 0c-3.450589 0.002047-6.769171-1.38351-9.657964-3.605108-0.597611-0.460488-1.303692-0.695848-1.849114-1.25048l-62.533218-63.786769-2.407839-2.454912c-6.357801-6.475482-6.357801-16.971533 0-23.431665 3.177366-3.254114 7.337105-4.858658 11.499915-4.858658l0.002047 0 0.002047 0c0.686638 0 1.337461 0.311085 2.018983 0.400113 3.450589 0.443092 6.826476 1.741667 9.478885 4.458545l43.586704 44.456514 21.35947 21.782096c0.37146 0.3776 0.50756 0.876973 0.836041 1.281179C268.799002-67.870392 268.660856-58.316805 262.678608-52.218924zM112.14208 502.487737c6.728238 17.980513 14.799054 34.166147 23.481807 49.353035 4.024663 7.04137 8.195659 13.792121 12.546757 20.265556 11.980869 17.829064 24.988114 33.5757 38.585807 47.418986 67.99358 69.220524 148.264788 91.766007 162.681126 95.311763 1.373277 0.337691 2.148943 0.505513 2.258437 0.528026 2.198062 0.454348 4.201695 1.339508 5.945409 2.554172 5.228071 3.640923 8.097422 10.225899 6.769171 16.956184-0.004093 0.01535-0.013303 0.026606-0.017396 0.041956-0.418532 2.103918-1.25662 3.991917-2.334161 5.692652-0.36225 0.572028-0.858554 0.984421-1.283226 1.502213-0.845251 1.035586-1.708921 2.012843-2.768043 2.801812-0.610914 0.458441-1.279133 0.760317-1.949398 1.12666-1.064238 0.583285-2.131547 1.079588-3.309372 1.407046-0.775666 0.216941-1.541099 0.322341-2.350534 0.420579-0.621147 0.075725-1.194198 0.326435-1.829671 0.326435-1.068332 0-2.153036-0.109494-3.242857-0.337691-0.013303-0.002047-0.026606 0.002047-0.039909 0-3.892657-0.796132-51.77213-11.063987-107.680465-45.192272-55.911404-34.129308-119.851669-92.117001-155.87307-188.358949-1.362021-3.647063-1.139963-7.405667-0.064468-10.852162 1.449002-4.64888 4.650927-8.67559 9.471722-10.533914 1.303692-0.512676 2.629897-0.592494 3.953032-0.747014 0.615007-0.069585 1.230014-0.346901 1.840928-0.346901l0.002047 0 0.002047 0c4.91494 0 9.078773 2.828418 12.167111 6.757914C110.135376 499.891609 111.521956 500.834074 112.14208 502.487737zM848.182692-118.457534l-64.946174 66.237587c-1.590218 1.61887-3.426029 2.833535-5.384637 3.64297s-4.03899 1.214664-6.120394 1.213641l-0.002047 0c-2.920516 0-5.711072-1.086751-8.29185-2.683109-1.095961-0.677429-2.260483-1.207501-3.207042-2.171456-0.794086-0.809435-1.190105-1.822508-1.786693-2.741437-0.822738-1.269923-1.571798-2.524496-2.01489-3.933589-1.160429-3.686972-1.209548-7.673773 0.228197-11.278881 0.794086-1.994424 1.985214-3.864004 3.573385-5.480828l32.474622-33.117258 32.472576-33.121352c2.915399-2.984984 6.677073-4.41659 10.489912-4.65809 0.343831-0.022513 0.666172-0.199545 1.00898-0.199545l0 0 0.002047 0c4.161786 0 8.324596 1.603521 11.501962 4.858658l0.002047 0.002047 0.002047 0.002047c0.550539 0.560772 0.784876 1.285273 1.239224 1.90028 1.277086 1.728364 2.188852 3.566222 2.714831 5.572926C853.582679-128.89321 852.437599-122.797375 848.182692-118.457534zM940.871721 514.303854c-40.522925 108.272959-116.386754 168.131255-176.393429 200.067618-46.671972 24.840758-83.753519 32.787754-87.159082 33.483602-0.011256 0.002047-0.020466-0.002047-0.031722 0-1.075495 0.224104-2.15099 0.330528-3.207042 0.330528-0.645706 0-1.227967-0.254803-1.858324-0.332575-0.809435-0.098237-1.573845-0.201591-2.347464-0.418532-1.182942-0.330528-2.252297-0.827855-3.322675-1.415232-0.668219-0.366344-1.330298-0.664126-1.941212-1.118474-1.069355-0.798179-1.947352-1.784646-2.803859-2.831488-0.413416-0.503467-0.901533-0.905626-1.25662-1.462305-1.092891-1.710968-1.941212-3.609201-2.361791-5.729491-1.769296-8.971325 3.933589-17.697057 12.720719-19.512403 0.138146-0.028653 1.673106-0.393973 3.805676-0.937348 18.0941-4.605901 102.789061-29.398564 170.939207-104.903212 10.116405-11.209296 19.682271-23.876804 28.780487-37.417191 4.351098-6.473435 8.522094-13.224186 12.546757-20.265556 8.682753-15.185864 16.753569-31.372521 23.481807-49.353035 0.621147-1.65264 2.009773-2.596128 3.039219-3.90596 3.086291-3.930519 7.251148-6.757914 12.165064-6.757914l0.002047 0 0.002047 0c0.610914 0 1.225921 0.277316 1.840928 0.346901 1.324158 0.154519 2.65241 0.234337 3.953032 0.747014 3.550873 1.370207 6.133697 4.013407 7.942903 7.094582C941.879678 504.217125 942.719812 509.362308 940.871721 514.303854zM812.605406 553.566066C740.940203 642.008374 632.547517 698.470317 511.457648 698.470317c-121.094986 0-229.491765-56.461943-301.156968-144.904251-2.611477-3.222391-4.863774-6.737448-7.374968-10.042727C144.622842 473.776835 109.446691 384.032882 109.446691 286.017544c0-221.936695 179.917696-401.855414 401.856437-401.855414s401.856437 179.917696 401.856437 401.855414c0 97.179296-34.502815 186.29494-91.915409 255.784594C818.321594 545.691725 815.664068 549.79109 812.605406 553.566066zM511.303128-54.012779c-187.495278 0-340.03237 152.538115-340.03237 340.030323 0 187.497325 152.538115 340.034417 340.03237 340.034417s340.03237-152.538115 340.03237-340.034417C851.335499 98.525336 698.798407-54.012779 511.303128-54.012779z"  horiz-adv-x="1024" />

    
    <glyph glyph-name="yingxiaobankuai" unicode="&#58895;" d="M895.52349125-60.91850531L124.82618375-60.91850531 91.02350187-60.91850531l0 67.60440375 33.80268188 0L895.52349125 6.6858993800000235l33.79212938-1e-8 0-67.60440374L895.52349125-60.91850531 895.52349125-60.91850531zM685.94494531 60.77114905999997L685.94494531 506.95983281c0 22.98409687 14.86704 28.38811312 33.80268188 44.62222594 33.80172281 27.04214531 109.52606156 93.29194781 109.52606156 93.29194781l63.53676188-35.15920218 36.50516906 85.18544437 0-626.01108469 0-8.11801594L685.94494531 60.77114905999997 685.94494531 60.77114905999997zM631.86065469 452.87554219l0-392.10439313-13.52203219 0c-71.66437125 0-133.85516625-1.35556125-202.80649687 0l-1e-8 0-27.04214531 0 0 27.04310438L388.48997938 101.33340750000002 388.48997938 452.87554219c0 0 79.77087563-47.32567313 117.6210525-44.62318594C545.3292425 410.96539781 631.86065469 452.87554219 631.86065469 452.87554219L631.86065469 452.87554219zM823.85911906 703.00675312c-9.46302375-8.10650344-18.93660094-13.51051969-27.04214531-21.62757656-82.48295625-70.30785094-164.95536-141.97222312-246.083715-212.28103312-21.62757656-18.92604844-41.91973875-21.63812906-66.2498025-5.40401625-55.44081094 35.14864875-113.5735575 66.2498025-167.65784813 102.7549725-31.10115375 21.63812906-52.73928281 18.93564188-78.42490781-6.76053656-22.98409687-22.98409687-50.02624219-41.90918531-74.36685937-62.19175407-17.56856813-13.52107312-36.50516906-21.63812906-54.08429063-2.70152812-17.58008062 18.92508844-5.40401625 35.14864875 10.818585 48.66972187 40.56321844 33.80268187 81.12643594 66.2498025 121.69061344 100.05248438 20.28256875 17.58008062 37.85113688 16.23411281 60.84578625 2.71304062 68.95229063-43.26570563 137.91417375-83.84043656 209.5679925-127.09462968 87.88601344 75.71186719 174.41934375 151.42469438 263.66283656 228.49308187-13.52203219 13.52107312-22.98505594 22.98409687-36.50516906 37.86168938 62.189835 14.87663344 120.33409313 29.74463344 185.23696969 47.32375406-17.57912156-62.2013475-32.45671406-116.27604469-48.66876282-174.41934375C857.66180094 673.2726731299999 841.43824062 686.78319281 823.85911906 703.00675312L823.85911906 703.00675312zM277.61795094 528.59796281c51.37221-14.87759344 56.78773781-43.26474656 56.78773781-89.24445187 1.34500781-108.15802875 0-269.06685281 0-378.58236094L91.02350187 60.77114905999997 91.02350187 370.40217938c0 6.76149563 16.23411281 18.92604844 22.98409688 24.32910468C168.09284938 439.35351 223.52310687 483.97573688 277.61795094 528.59796281L277.61795094 528.59796281zM277.61795094 528.59796281"  horiz-adv-x="1024" />

    
    <glyph glyph-name="huangguan" unicode="&#59348;" d="M981.334016-128 327.112704-128 99.55328 441.888768c-55.704576 5.08928-99.552256 53.330944-99.552256 112.777216 0 62.843904 48.812032 113.777664 109.036544 113.777664s109.036544-50.93376 109.036544-113.777664c0-24.139776-7.310336-46.434304-19.596288-64.843776C236.981248 426.36288 304.27136 383.992832 381.623296 383.992832c101.506048 0 186.044416 72.701952 210.37056 170.673152l7.703552 0L599.697408 684.225536c-32.459776 19.703808-54.51264 55.985152-54.51264 97.995776C545.185792 845.06624 593.997824 896 654.22336 896s109.037568-50.93376 109.037568-113.777664c0-42.011648-22.065152-78.291968-54.524928-97.995776l0-129.559552 7.714816 0c24.326144-97.970176 108.877824-170.673152 210.358272-170.673152 77.351936 0 144.653312 42.370048 183.15776 105.829376-12.29824 18.409472-19.596288 40.702976-19.596288 64.843776 0 62.843904 48.812032 113.777664 109.036544 113.777664 60.225536 0 109.037568-50.93376 109.037568-113.777664 0-59.446272-43.848704-107.675648-99.552256-112.777216L981.334016-128z"  horiz-adv-x="1309" />

    
    <glyph glyph-name="bianjiguanli" unicode="&#58989;" d="M703.921014 326.66622400000006L214.380966 326.66622400000006c-20.438118 0-37.007586 16.570485-37.007586 37.006568 0 20.438118 16.56845 37.006568 37.007586 37.006568L703.921014 400.679361c20.438118 0 37.007586-16.56845 37.007586-37.006568C740.9286 343.236709 724.359133 326.66622400000006 703.921014 326.66622400000006zM494.118427 536.469829L214.380966 536.469829c-20.438118 0-37.007586 16.570485-37.007586 37.007586s16.56845 37.006568 37.007586 37.006568l279.736444 0c20.439136 0 37.007586-16.569467 37.007586-37.006568S514.557563 536.469829 494.118427 536.469829zM950.74238 538.479452c0 20.437101-16.56845 37.007586-37.006568 37.007586-20.426926 0-36.988253-16.554204-37.005551-36.976042l-0.013228 0 0-567.72913c0-13.608453-11.06768-24.672063-24.671045-24.672063L136.191884-53.890198000000055c-13.604383 0-24.672063 11.06361-24.672063 24.672063l0 785.78796c0 13.602348 11.066662 24.671045 24.672063 24.671045l497.796291 0 0 0.033579c0.011193 0 0.022386-0.001018 0.033579-0.001018 20.438118 0 37.006568 16.56845 37.006568 37.006568 0 20.439136-16.56845 37.006568-37.006568 37.006568-0.218769 0-0.429398-0.029508-0.645114-0.032561L136.191884 855.254007c-54.415498 0-98.6852-44.269701-98.6852-98.6852l0-785.78796c0-54.416516 44.269701-98.6852 98.6852-98.6852l715.854104 0c54.415498 0 98.684182 44.268684 98.684182 98.6852L950.73017 538.2393139999999C950.731187 538.319699 950.74238 538.3970320000001 950.74238 538.479452zM668.953577 536.469829c-9.471174 0-18.941331 3.611216-26.16885 10.839753-14.450969 14.450969-14.450969 37.882662 0 52.335666L922.523205 879.380674c14.453004 14.453004 37.88368 14.453004 52.337701 0 14.450969-14.450969 14.450969-37.882662 0-52.335666L695.123445 547.309582C687.895926 540.081045 678.424751 536.469829 668.953577 536.469829z"  horiz-adv-x="1024" />

    
    <glyph glyph-name="mima" unicode="&#58956;" d="M768.9216 473.27232 372.06016 473.27232C378.88 530.78016 329.37984 764.57984 512.2048 770.27328c173.83424 6.59456 146.78016-213.34016 146.78016-213.34016l85.13536-0.57344c0 0 24.73984 294.4-231.91552 295.8336C232.09984 837.98016 297.82016 518.81984 289.28 473.27232c1.98656 0 4.56704 0 7.29088 0-55.88992 0-101.21216-45.34272-101.21216-101.21216l0-337.38752c0-55.88992 45.34272-101.21216 101.21216-101.21216l472.35072 0c55.88992 0 101.21216 45.34272 101.21216 101.21216L870.13376 372.06016C870.13376 427.9296 824.79104 473.27232 768.9216 473.27232zM566.4768 178.97472l0-76.84096c0-18.57536-15.1552-33.73056-33.73056-33.73056-18.57536 0-33.73056 15.1552-33.73056 33.73056l0 76.84096c-20.09088 11.69408-33.73056 33.21856-33.73056 58.12224 0 37.2736 30.208 67.4816 67.4816 67.4816 37.2736 0 67.4816-30.208 67.4816-67.4816C600.22784 212.19328 586.58816 190.6688 566.4768 178.97472z"  horiz-adv-x="1024" />

    
    <glyph glyph-name="shuaxin" unicode="&#59089;" d="M454.44907812 53.25C477.27251562 48.69375000000002 499.75845312 46.5 521.78032813 46.5 667.03189062 46.5 790.51470313 141.25312499999995 835.99282813 272.79375000000005 841.43501563 288.5296875 855.31470313 299.625 871.72564063 299.625L881.04907812 299.625C906.44595312 299.625 924.88189062 274.3125 916.82407812 249.88593749999995 861.51626562 82.65468750000002 705.54907812-37.875 521.78032813-37.875 276.08032812-37.875 80.07720312 177.57656250000002 107.87876562 432.1359375 129.18345313 627.1265625 287.17564062 784.7390625 479.97251562 803.8078125 494.06314062 805.2 507.98501562 805.875 521.78032813 805.875 635.43345312 805.875 738.32876562 759.6375 813.38032813 684.8390625L813.38032813 763.6875C813.38032813 786.975 832.02720312 805.875 855.01939063 805.875 878.01157813 805.875 896.65845312 786.975 896.65845312 763.6875L896.65845312 594.9375C896.65845312 571.65 878.01157813 552.75 855.01939063 552.75L688.42095313 552.75C665.38657812 552.75 646.73970313 571.65 646.73970313 594.9375 646.73970313 618.225 665.38657812 637.125 688.42095313 637.125L741.74595312 637.125C683.02095313 689.5640625 606.02876562 721.5 521.78032813 721.5 316.03189063 721.5 153.23032812 531.65625 195.16470313 315.82500000000005 220.68814063 184.70624999999995 324.97564063 79.06875000000002 454.44907812 53.25Z"  horiz-adv-x="1024" />

    
    <glyph glyph-name="jiahao" unicode="&#58887;" d="M512.306985 857.933846c-260.118717 0-471.017488-210.898771-471.017488-471.017487S252.188268-84.101129 512.306985-84.101129c260.118717 0 471.017488 210.898771 471.017488 471.017488S772.425702 857.933846 512.306985 857.933846z m268.816628-538.247227h-201.586889v-201.586889H445.077246v201.586889h-201.586889V454.146098h201.586889V655.732987h134.459478v-201.586889h201.586889v-134.459479z"  horiz-adv-x="1024" />

    
    <glyph glyph-name="zhankaidaohang" unicode="&#58971;" d="M62.00060029 793.6800000000001C62.00060029 816.11999971 79.7606 834 101.7206 834h1000.55999971c21.89999971 0 39.71999971-18 39.72000058-40.32a39.89999971 39.89999971 0 0 0-39.72000058-40.32H101.7206A40.07999971 40.07999971 0 0 0 62.00060029 793.6800000000001z m299.99999971-272.99999971c0 22.43999971 17.82 40.32 39.78 40.32h700.44000029c22.02000029 0 39.78-18 39.78-40.32a39.96 39.96 0 0 0-39.78-40.32H401.7806A40.02000029 40.02000029 0 0 0 362.0006 520.68000029z m0-273.00000058c0 22.43999971 17.82 40.32 39.78 40.32h700.44000029c22.02000029 0 39.78-18 39.78-40.32a39.96 39.96 0 0 0-39.78-40.32H401.7806A40.02000029 40.02000029 0 0 0 362.0006 247.67999970999995zM62.00060029-25.799999709999952c0 22.38000029 17.75999971 40.20000029 39.71999971 40.19999942h1000.55999971c21.89999971 0 39.71999971-18 39.72000058-40.19999942 0-22.38000029-17.75999971-40.20000029-39.72000058-40.20000029H101.7206A40.02000029 40.02000029 0 0 0 62.00060029-25.799999709999952z m46.26 273.35999971C82.70060029 226.79999970999995 62.00060029 236.39999999999998 62.00060029 269.99999971V534.00000029c0 33.12 21.30000029 43.2 47.39999942 22.68l145.20000058-114.36000029c26.16000029-20.63999971 26.93999971-54 1.13999942-74.99999971L108.2006 247.62000029z"  horiz-adv-x="1228" />

    
    <glyph glyph-name="gongzuotai" unicode="&#58981;" d="M921.6 797.86666667h-819.2c-28.16 0-51.2-23.04-51.2-51.2v-588.8c0-28.16 23.04-51.2 51.2-51.2h307.2v-102.4h-281.6c-12.8 0-25.6-12.8-25.6-25.6s12.8-25.6 25.6-25.6h768c12.8 0 25.6 12.8 25.6 25.6s-12.8 25.6-25.6 25.6h-281.6v102.4h307.2c28.16 0 51.2 23.04 51.2 51.2v588.8c0 28.16-23.04 51.2-51.2 51.2z m-358.4-793.6h-102.4v102.4h102.4v-102.4z m358.4 153.6h-819.2v588.8h819.2v-588.8zM281.6 260.26666666999995c12.8 0 25.6 12.8 25.6 25.6v128c0 12.8-12.8 25.6-25.6 25.6s-25.6-12.8-25.6-25.6v-128c0-12.8 12.8-25.6 25.6-25.6zM435.2 260.26666666999995c12.8 0 25.6 12.8 25.6 25.6v230.4c0 12.8-12.8 25.6-25.6 25.6s-25.6-12.8-25.6-25.6v-230.4c0-12.8 12.8-25.6 25.6-25.6zM588.8 260.26666666999995c12.8 0 25.6 12.8 25.6 25.6v179.2c0 12.8-12.8 25.6-25.6 25.6s-25.6-12.8-25.6-25.6v-179.2c0-12.8 12.8-25.6 25.6-25.6zM742.4 260.26666666999995c12.8 0 25.6 12.8 25.6 25.6v281.6c0 12.8-12.8 25.6-25.6 25.6s-25.6-12.8-25.6-25.6v-281.6c0-12.8 12.8-25.6 25.6-25.6z"  horiz-adv-x="1024" />

    
    <glyph glyph-name="chakan" unicode="&#58998;" d="M1034.80602486 10.977420130000041zM639.10554486 130.08270012000003c0 118.54080001 97.09056001 216.19584 215.63136001 216.76032 60.39936 0 114.02496001-23.14367999 152.97407999-61.52831999 10.16063999-10.16063999 27.09504-3.38687999 27.09504 11.28959999v492.22656c0 34.99776001-28.78847999 63.78624-63.78623999 63.78624h-718.58304002c-34.99776001 0-63.78624-28.78847999-63.78623999-63.78624v-775.03104c0-34.99776001 28.78847999-63.78624 63.78623999-63.78623999h438.60096001c14.112 0 20.88576 17.49888001 10.72511999 27.09503999-38.94912 38.38463999-62.65728 92.57472001-62.65727999 152.97408z m-253.45152 496.7424h474.16320001c16.93439999 0 28.22400001-11.2896 28.22399998-28.224s-11.2896-28.22400001-28.22399998-28.224h-474.16320001c-16.93439999 0-28.22400001 11.2896-28.224 28.224s11.2896 28.22400001 28.224 28.224z m-28.224-197.56799999c0 16.93439999 11.2896 28.22400001 28.224 28.22399998h395.13599999c16.93439999 0 28.22400001-11.2896 28.22400004-28.22399998s-11.2896-28.22400001-28.22400004-28.22400001h-395.13599999c-16.93439999 0-28.22400001 11.2896-28.224 28.22400001zM814.65882486 824.39310012zM1486.39002485 457.48110012zM989.08314486 9.283980130000032c30.48191999 30.48191999 48.54527998 72.81792001 48.54528 121.36319999 0 103.29984-79.0272 182.32704-182.32704 182.32704s-182.32704-79.0272-182.32704001-182.32704 79.0272-182.32704 182.32704002-182.32703999c30.48191999 0 60.96384 6.20928 85.23647999 24.27263999l97.09056-97.09056c12.41856001-12.41856001 30.48191999-12.41856001 42.336 0s12.41856001 30.48191999 0 42.336l-90.88128 91.44576001z m-133.78176 0c-66.60864001 0-121.36319999 54.75455999-121.36320001 121.36319999s54.75455999 121.36319999 121.36320002 121.3632 121.36319999-54.75455999 121.36319999-121.3632-54.75455999-121.36319999-121.36319999-121.36319999zM955.21434486 11.541900120000037c-2.25792-2.25792-5.08032-3.95135999-7.33824001-6.20928 2.82239999-0.56448 5.64479999-1.69344 7.90272001-2.82239998-0.56448 2.25792-0.56448 3.95135999-0.56448 6.20927998v2.8224z"  horiz-adv-x="1280" />

    
    <glyph glyph-name="chanpin" unicode="&#59105;" d="M962 140.25000029c0-113.90625-92.32499971-206.25000029-206.25000029-206.25000029-113.90625 0-206.25000029 92.32499971-206.24999942 206.25000029v149.98124971A56.25 56.25 0 0 0 605.76875 346.49999971H755.74999971c113.90625 0 206.25000029-92.32499971 206.25000029-206.24999942z m-74.99999971 0c0 72.3375-58.76250029 131.24999971-131.25000058 131.24999971h-131.24999971v-131.24999971c0-72.3375 58.76250029-131.24999971 131.24999971-131.25000058 72.3375 0 131.24999971 58.76250029 131.25000058 131.25000058zM62 140.25000029c0 113.92499971 92.34375029 206.25000029 206.25000029 206.24999942h149.98124971A56.25 56.25 0 0 0 474.49999971 290.23125000000005V140.25000029c0-113.92499971-92.34375029-206.25000029-206.24999942-206.25000029-113.92499971 0-206.25000029 92.34375029-206.25000029 206.25000029z m74.99999971 0c0-72.48750029 58.91249971-131.24999971 131.25000058-131.25000058 72.48750029 0 131.24999971 58.91249971 131.24999971 131.25000058v131.24999971h-131.24999971c-72.48750029 0-131.24999971-58.91249971-131.25000058-131.24999971z m825.00000029 487.49999942c0-113.92499971-92.34375029-206.25000029-206.25000029-206.24999942h-149.98124971A56.25 56.25 0 0 0 549.50000029 477.76875V627.74999971c0 113.92499971 92.34375029 206.25000029 206.24999942 206.25000029 113.92499971 0 206.25000029-92.34375029 206.25000029-206.25000029z m-74.99999971 0c0 72.48750029-58.91249971 131.24999971-131.25000058 131.25000058-72.48750029 0-131.24999971-58.91249971-131.24999971-131.25000058v-131.24999971h131.24999971c72.48750029 0 131.24999971 58.91249971 131.25000058 131.24999971zM62 627.74999971C62 741.65624971 154.32499971 834 268.25000029 834c113.90625 0 206.25000029-92.32499971 206.24999942-206.25000029v-149.98124971A56.25 56.25 0 0 0 418.23125 421.50000029H268.25000029C154.34375029 421.50000029 62 513.825 62 627.74999971z m74.99999971 0c0-72.3375 58.76250029-131.24999971 131.25000058-131.24999971h131.24999971v131.24999971c0 72.3375-58.76250029 131.24999971-131.24999971 131.25000058-72.3375 0-131.24999971-58.76250029-131.25000058-131.25000058z"  horiz-adv-x="1024" />

    
    <glyph glyph-name="zoushi4" unicode="&#58945;" d="M929.10023111 891.5884563h-828.50449383c-52.81716148 0-95.53692445-42.8492168-95.53692445-95.53692445V158.75034074999996c0-52.81716148 42.8492168-95.53692445 95.53692445-95.53692445h366.48378469v-95.53692445h-111.589199c-26.40858075 0-47.76846222-21.35988148-47.76846222-47.76846222s21.35988148-47.76846222 47.76846222-47.76846222h318.71532246c26.40858075 0 47.76846222 21.35988148 47.76846222 47.76846222s-21.35988148 47.76846222-47.76846222 47.76846222h-111.58919901v95.53692445h366.48378469c52.81716148 0 95.53692445 42.8492168 95.53692444 95.53692445V796.05153185c0.12945383 52.81716148-42.71976297 95.53692445-95.53692444 95.53692445z m-77.15448098-426.80926815c0-26.40858075-21.35988148-47.76846222-47.76846223-47.76846223s-47.76846222 21.35988148-47.76846221 47.76846223v63.04401382L590.44901925 356.55578863999995c-17.99408197-18.64135111-47.63900839-19.5475279-66.66872098-1.9418074l-85.82788741 78.83738073-176.05720494-165.57144494c-9.19122173-8.67340642-20.97152-12.94538272-32.75181827-12.94538272-12.68647506 0-25.50240395 5.04869925-34.8230795 15.01664396-18.12353581 19.28862025-17.08790518 49.45136197 2.07126124 67.57489778l208.42066172 195.99309432c18.25298963 17.08790518 46.60337778 17.34681283 65.11527506 0.38836148l84.27444148-77.41338865 137.09160296 141.62248693h-76.50721185c-26.40858075 0-47.76846222 21.35988148-47.76846223 47.76846222s21.35988148 47.76846222 47.76846223 47.76846222h189.26149532c2.97743803 0 5.82542222-0.38836148 8.54395259-0.90617679 0.9061768-0.12945383 1.68289975-0.38836148 2.58907653-0.64726914 1.94180741-0.51781531 3.88361482-1.03563061 5.82542223-1.81235358 0.77672297-0.25890765 1.68289975-0.51781531 2.45962272-0.90617679 2.45962272-1.16508445 4.91924543-2.33016889 7.11996049-3.8836148 0.38836148-0.25890765 0.64726914-0.51781531 1.03563061-0.77672297 1.94180741-1.4239921 3.75416098-2.84798419 5.43706075-4.53088397l1.81235358-1.81235356c1.4239921-1.4239921 2.58907653-2.97743803 3.88361481-4.66033779 0.51781531-0.64726914 1.03563061-1.29453827 1.42399211-2.07126123 1.4239921-2.33016889 2.84798419-4.66033778 3.88361481-7.24941432 0.12945383-0.12945383 0.12945383-0.25890765 0.12945383-0.51781532 1.03563061-2.45962272 1.81235358-5.04869925 2.33016889-7.63777579 0.12945383-0.77672297 0.25890765-1.55344592 0.38836147-2.45962271 0.38836148-2.20071506 0.64726914-4.53088395 0.64726914-6.73159901 0-0.51781531 0.12945383-0.9061768 0.12945383-1.42399211v-180.84699654z"  horiz-adv-x="1024" />

    
    <glyph glyph-name="guanbidaohang" unicode="&#58880;" d="M1149.49619141-25.680175780000013c0-22.44023438-17.76005859-40.31982422-39.72041016-40.31982422h-1000.56005859c-21.89970703 0-39.72041016 18-39.72041016 40.31982422-0.00175781 0.12480469-0.00263672 0.27246094-0.00263672 0.42011719 0 21.97265625 17.76269531 39.79863281 39.7116211 39.89970703h1000.56972656c21.98056641-0.20302734 39.72041016-18.06943359 39.72041015-40.078125 0-0.08613281 0-0.16875-0.0008789-0.25488281zM849.49648437 247.32041016000005c0-22.44023438-17.81982422-40.31982422-39.78017578-40.31982422h-700.4399414c-22.02011719 0-39.78017578 18-39.78017578 40.31982422-0.00087891 0.10722656-0.00175781 0.23466797-0.00175782 0.35947265 0 22.00693359 17.7890625 39.85839844 39.77226563 39.96035157h700.44960937c21.99990234-0.13447266 39.78105469-18.00087891 39.78105469-40.01923829 0-0.10546875 0-0.2109375-0.00087891-0.31728515zM849.49648437 520.32011719c0-22.44023438-17.81982422-40.31982422-39.78017578-40.31982422h-700.4399414c-22.02011719 0-39.78017578 18-39.78017578 40.31982422-0.00087891 0.10722656-0.00175781 0.23466797-0.00175782 0.35947265 0 22.00693359 17.7890625 39.85839844 39.77226563 39.96035157h700.44960937c21.99990234-0.13447266 39.78105469-18.00087891 39.78105469-40.01923828 0-0.10546875 0-0.2109375-0.00087891-0.31728516zM1149.49619141 793.79970703c0-22.37958984-17.76005859-40.20029297-39.72041016-40.20029297h-1000.56005859c-21.89970703 0-39.72041016 18-39.72041016 40.20029297 0 22.37958984 17.76005859 40.20029297 39.72041016 40.20029297h1000.56005859c21.97353516-0.16962891 39.72041016-18.02197266 39.72041016-40.01923828 0-0.06328125 0-0.12832031-0.00087891-0.19072266zM1103.23583984 520.4396484399999c25.56035156 20.75976563 46.26035156 11.16035156 46.26035157-22.44023438v-263.99970703c0-33.11982422-21.30029297-43.2-47.40029297-22.68017578l-145.19970703 114.35888672c-26.15976562 20.64023437-26.94023437 54-1.14082032 74.99970703l147.54023438 119.7z"  horiz-adv-x="1228" />

    
    <glyph glyph-name="trumpet" unicode="&#59282;" d="M864 57.60000000000002c-6.4 0-12.8 0-19.2 6.4-6.4 12.8-6.4 25.6 0 32 76.8 70.4 121.6 166.4 121.6 275.2 0 115.2-51.2 217.6-140.8 288-12.8 6.4-12.8 25.6-6.4 32 12.8 19.2 32 19.2 38.4 12.8C966.4 627.2 1024 505.6 1024 377.6c0-121.6-51.2-230.4-140.8-313.6-6.4 0-12.8-6.4-19.2-6.4zM774.4 147.20000000000005c-6.4 0-12.8 0-19.2 6.4-6.4 12.8-6.4 25.6 6.4 32 57.6 44.8 89.6 115.2 89.6 185.6 0 76.8-38.4 153.6-108.8 198.4-12.8 6.4-12.8 25.6-6.4 32 6.4 12.8 25.6 12.8 32 6.4 83.2-51.2 128-140.8 128-236.8 0-83.2-38.4-166.4-102.4-224h-19.2zM678.4 243.20000000000005c-6.4 0-12.8 6.4-19.2 12.8-6.4 12.8-6.4 25.6 6.4 32 32 19.2 44.8 51.2 44.8 89.6 0 44.8-25.6 83.2-64 96-12.8 6.4-19.2 19.2-12.8 32 6.4 12.8 19.2 19.2 32 12.8 57.6-25.6 96-76.8 96-140.8 0-51.2-25.6-102.4-70.4-128 0-6.4-6.4-6.4-12.8-6.4zM204.8 217.60000000000002H57.6c-32 0-57.6 25.6-57.6 57.6v224c0 32 25.6 57.6 57.6 57.6h147.2c12.8 0 25.6-12.8 25.6-25.6s-12.8-25.6-25.6-25.6H57.6c-6.4 0-6.4-6.4-6.4-6.4v-224c0-6.4 6.4-6.4 6.4-6.4h147.2c12.8 0 25.6-12.8 25.6-25.6s-12.8-25.6-25.6-25.6zM556.8-128c-12.8 0-25.6 6.4-32 12.8L185.6 224c-6.4 6.4-6.4 12.8-6.4 19.2v288c0 6.4 0 12.8 6.4 19.2L524.8 883.2C531.2 889.6 544 896 556.8 896 582.4 896 608 876.8 608 844.8v-928c0-12.8-6.4-25.6-12.8-38.4-12.8 0-25.6-6.4-38.4-6.4zM230.4 249.60000000000002l326.4-332.8v928L230.4 518.4v-268.8z"  horiz-adv-x="1024" />

    
    <glyph glyph-name="guanli" unicode="&#58918;" d="M495.6 123.2c-131.1 8.3-236.4 113.4-244.8 244.5-9.8 152.1 111.4 279 261.6 279 144.4 0 261.9-117.5 261.9-261.8 0.1-150.2-126.7-271.2-278.7-261.7z m16.8 479.7c-122 0-221-100.4-218.3-222.8 2.5-116.5 97.3-211.2 213.8-213.5 122.3-2.5 222.7 96.4 222.7 218.3 0 120.2-97.9 218-218.2 218zM864.6 518h-9.4c-3.5 0-6.7 2.1-8.1 5.4-1.3 3.3-0.6 7 1.9 9.5l12.9 12.9c16.4 16.4 25.4 38.3 25.4 61.5 0 23.2-9 45.1-25.4 61.4l-65.5 65.6c-16.4 16.4-38.2 25.4-61.4 25.4-23.2 0-45-9-61.4-25.4l-12.9-12.9c-2.5-2.5-6.3-3.3-9.5-1.9-3.3 1.4-5.4 4.5-5.4 8.1v9.5c0 52.8-42.8 95.6-95.6 95.6H475c-52.8 0-95.6-42.8-95.6-95.6v-9.5c0-3.5-2.1-6.7-5.4-8.1h-0.1c-3.3-1.4-7-0.6-9.5 1.9l-12.9 12.9c-16.4 16.4-38.3 25.4-61.4 25.4-23.2 0-45-9-61.4-25.4l-65.5-65.6c-16.4-16.4-25.4-38.2-25.4-61.4 0-23.3 9-45.1 25.4-61.5l12.9-12.9c2.5-2.5 3.2-6.2 1.9-9.5-1.3-3.3-4.5-5.4-8.1-5.4H160c-52.8 0-95.7-42.8-95.7-95.7v-75.2c0-52.9 42.8-95.7 95.7-95.7h9.4c3.5 0 6.7-2.1 8.1-5.4 1.3-3.3 0.6-7-1.9-9.5l-12.9-12.9c-16.4-16.4-25.4-38.2-25.4-61.5 0-23.2 9-45.1 25.4-61.5l65.5-65.5c16.4-16.4 38.2-25.4 61.4-25.4 23.2 0 45.1 9 61.4 25.4l12.9 12.9c2.5 2.5 6.3 3.2 9.5 1.9h0.1c3.3-1.4 5.4-4.5 5.4-8.1v-9.5c0-52.8 42.8-95.6 95.6-95.6h75.2c52.8 0 95.6 42.8 95.6 95.6v9.5c0 3.5 2.1 6.7 5.4 8.1 3.3 1.3 7 0.6 9.5-1.9l12.9-12.9c16.4-16.4 38.2-25.4 61.4-25.4 23.2 0 45 9 61.4 25.4l65.6 65.6c16.4 16.4 25.4 38.2 25.4 61.5 0 23.2-9 45.1-25.4 61.5L849 236.5c-2.5 2.5-3.2 6.3-1.9 9.5 1.4 3.3 4.5 5.4 8.1 5.4h9.5c52.8 0 95.7 42.8 95.7 95.7v75.2c-0.1 52.8-42.9 95.7-95.8 95.7z m51.9-170.9c0-28.7-23.2-51.9-51.9-51.9h-40c-3.7 0-7-2.4-8.3-5.9l-3.1-8.9c-4.1-11.8-8.9-23.6-14.5-35l-4.1-8.4c-1.6-3.3-0.9-7.4 1.7-10l34.4-34.4c8.1-8.1 12.6-19 12.6-30.5s-4.5-22.4-12.6-30.5l-65.5-65.5c-8.1-8.1-19-12.6-30.5-12.6s-22.4 4.5-30.5 12.6L670 100.5c-2.6 2.6-6.6 3.3-10 1.7l-8.4-4.1c-11.2-5.5-23-10.3-35-14.4l-8.9-3.1c-3.5-1.2-5.9-4.5-5.9-8.3v-48.7c0-23.8-19.4-43.1-43.1-43.1h-83.9c-28.6 0-51.9 23.2-51.9 51.9v40c0 3.7-2.4 7.1-5.9 8.3l-8.9 3.1c-11.9 4.1-23.6 9-35 14.5l-8.4 4.1c-3.4 1.6-7.4 1-10-1.7l-34.4-34.5c-8.1-8.1-18.9-12.6-30.5-12.6-11.5 0-22.4 4.5-30.5 12.6l-65.5 65.5c-8.1 8.1-12.6 19-12.6 30.5 0 11.6 4.5 22.4 12.6 30.5l34.4 34.5c2.6 2.6 3.3 6.7 1.7 10l-4.1 8.4c-5.5 11.2-10.3 23-14.4 34.9l-3.1 8.9c-1.2 3.5-4.5 5.9-8.3 5.9h-40c-28.7 0-51.9 23.2-51.9 51.9v75.2c0 28.7 23.2 51.9 51.9 51.9h40c3.7 0 7.1 2.4 8.3 5.9l3.1 8.9c4.2 12.1 9 23.8 14.4 34.9l4.1 8.4c1.6 3.4 1 7.4-1.7 10l-34.4 34.5c-8.1 8.1-12.6 19-12.6 30.5s4.5 22.3 12.6 30.5l65.5 65.6c8.1 8.1 19 12.6 30.5 12.6s22.4-4.5 30.5-12.6l34.4-34.5c2.6-2.6 6.7-3.3 10-1.7l8.4 4.1c11.3 5.5 23.1 10.4 35 14.5l8.9 3.1c3.5 1.2 5.9 4.5 5.9 8.3v40c0 28.6 23.2 51.9 51.9 51.9H550c28.6 0 51.9-23.2 51.9-51.9v-40c0-3.7 2.4-7.1 5.9-8.3l8.9-3c11.8-4 23.5-8.9 35-14.4l8.4-4.1c3.4-1.6 7.4-0.9 10 1.7l34.4 34.4c8.1 8.1 19 12.6 30.5 12.6s22.4-4.5 30.5-12.6l65.5-65.5c8.1-8.1 12.6-18.9 12.6-30.5 0-11.5-4.5-22.4-12.6-30.5l-34.4-34.4c-2.6-2.6-3.3-6.6-1.7-10l4.1-8.4c5.5-11.2 10.3-23 14.4-35l3.1-8.9c1.2-3.5 4.5-5.9 8.3-5.9h40c28.7 0 51.9-23.2 51.9-51.9v-75.5z"  horiz-adv-x="1024" />

    
    <glyph glyph-name="caidan" unicode="&#58890;" d="M70.5 656.2c0-30.6 24.8-55.4 55.4-55.4s55.4 24.8 55.4 55.4-24.8 55.4-55.4 55.4c-30.6 0-55.4-24.8-55.4-55.4z m0.1-274.4c0-30.6 24.8-55.4 55.4-55.4 30.6 0 55.4 24.8 55.4 55.4 0 30.6-24.8 55.4-55.4 55.4-30.6 0.1-55.4-24.7-55.4-55.4z m0-275.8c0-30.6 24.8-55.4 55.4-55.4 30.6 0 55.4 24.8 55.4 55.4 0 30.6-24.8 55.4-55.4 55.4S70.6 136.70000000000005 70.6 106z m886.6 552.8c0-29.2-21.7-52.8-48.5-52.8H334c-26.8 0-48.5 23.7-48.5 52.8 0 29.1 21.7 52.8 48.5 52.8h574.7c26.8 0 48.5-23.6 48.5-52.8z m0-274.4c0-29.1-21.7-52.8-48.5-52.8H334c-26.8 0-48.5 23.7-48.5 52.8 0 29.2 21.7 52.8 48.5 52.8h574.7c26.8 0 48.5-23.6 48.5-52.8z m0-275.7c0-29.2-21.7-52.9-48.5-52.9H334c-26.8 0-48.5 23.7-48.5 52.9 0 29.1 21.7 52.7 48.5 52.7h574.7c26.8 0.1 48.5-23.6 48.5-52.7z"  horiz-adv-x="1024" />

    
    <glyph glyph-name="tuichu" unicode="&#58923;" d="M188.375 706.125h386.0625V804.9375H91.90625v-840h482.625V63.75H188.375V706.125z m743.4375-299.625L738.78125 653.25V459H333.125v-98.8125h405.5625v-200.4375l193.125 246.75z"  horiz-adv-x="1024" />

    
    <glyph glyph-name="chexiao" unicode="&#59003;" d="M962 789.05625v-810.1125A44.90624971 44.90624971 0 0 0 917.05625-66H106.94375A44.90624971 44.90624971 0 0 0 62-21.056249999999977V789.05625A44.90624971 44.90624971 0 0 0 106.94375 834h810.1125A44.90624971 44.90624971 0 0 0 962 789.05625z m-180-566.81250029c0 178.61249971-121.20000029 324.1125-270 323.51250058v53.81249942c0 20.71874971-9.71250029 39.63750029-25.04999971 48.52500029A35.81250029 35.81250029 0 0 1 467 654c-9.71250029 0-19.42499971-3.56249971-27.09375029-10.64999971l-180-162.63750058c-11.25-10.06875-17.90624971-26.02500029-17.90624971-43.18124942s6.65624971-33.13125 17.90624971-43.18125029l180-162.05625c8.17499971-7.10624971 17.38125-10.64999971 27.09375029-10.64999971 6.65624971 0 13.79999971 2.3625 19.95000029 5.92499971 15.33750029 9.45 25.04999971 27.7875 25.04999971 48.4875v53.81250029c117.61875 0 216.82500029-89.8875 254.15624971-215.86875029 10.21875029 33.71249971 15.84375029 70.38749971 15.84375029 108.24374971z"  horiz-adv-x="1024" />

    
    <glyph glyph-name="quanyuanyingxiao" unicode="&#59067;" d="M512 834C264.5 834 62 631.5 62 384s202.5-450 450-450 450 202.5 450 450S759.5 834 512 834z m0-846.5625C292.625-12.5625 115.4375 164.625 115.4375 384S292.625 780.5625 512 780.5625 908.5625 603.375 908.5625 384 731.375-12.5625 512-12.5625zM753.875 175.875H270.125c-5.625 0-11.25 5.625-11.25 11.25s5.625 11.25 11.25 11.25h483.75c5.625 0 11.25-5.625 11.25-11.25s-5.625-11.25-11.25-11.25zM391.0625 459.9375H303.875c-5.625 0-11.25-5.625-11.25-11.25v-196.875c0-5.625 5.625-11.25 11.25-11.25h87.1875c5.625 0 11.25 5.625 11.25 11.25v196.875c0 8.4375-5.625 11.25-11.25 11.25z m165.9375 132.1875h-87.1875c-8.4375 0-14.0625-5.625-14.0625-11.25v-329.0625c0-5.625 5.625-11.25 11.25-11.25h87.1875c5.625 0 11.25 5.625 11.25 11.25V580.875c2.8125 5.625-2.8125 11.25-8.4375 11.25z m163.125-219.375h-87.1875c-5.625 0-11.25-5.625-11.25-11.25v-109.6875c0-5.625 5.625-11.25 11.25-11.25h87.1875c5.625 0 11.25 5.625 11.25 11.25v109.6875c0 5.625-5.625 11.25-11.25 11.25z"  horiz-adv-x="1024" />

    
    <glyph glyph-name="shoucang" unicode="&#58889;" d="M707.584 802.816c-77.312 0-148.992-38.912-196.608-102.912-47.104 64-119.296 102.912-196.608 102.912-139.264 0-252.416-123.904-252.416-275.968 0-90.624 40.448-154.624 73.216-205.824 94.72-148.992 333.312-333.824 343.552-341.504 9.728-7.68 20.992-11.264 32.256-11.264s22.528 3.584 32.256 11.264c10.24 7.68 248.32 193.024 343.552 341.504 32.768 51.2 73.216 115.2 73.216 205.824 0 152.064-113.152 275.968-252.416 275.968z"  horiz-adv-x="1024" />

    
    <glyph glyph-name="tianjia" unicode="&#58919;" d="M640 192H448v-64h192v-192h64v192h192v64h-192V384h-64zM448 0H192V768h384v-192c0-38.4 25.6-64 64-64h192v-128h64V556.8l-64 64L684.8 768l-64 64H192c-38.4 0-64-25.6-64-64v-768c0-38.4 25.6-64 64-64h256v64z m192 723.2L787.2 576H640V723.2z"  horiz-adv-x="1024" />

    
    <glyph glyph-name="queren" unicode="&#58898;" d="M1020.64 526.8288V829.2437333299999c0 35.2896-28.7104 64-64 64H369.1712v-0.60586666H66.75413333c-35.2896 0-64-28.7104-64-64v-889.28c0-17.7984 7.3088-33.91786667 19.07626667-45.5296 11.61173333-11.76746667 27.7312-19.07626667 45.5296-19.07626667h889.28c17.7984 0 33.91786667 7.3088 45.5296 19.07626667 11.76746667 11.61173333 19.07626667 27.7312 19.07626667 45.5296V526.8288h-0.60586667z m-164.58666667 12.1024L490.73493333 165.80693333c-6.7328-7.19573333-15.35573333-12.18773333-24.96853333-14.464a50.16213333 50.16213333 0 0 0-13.83466667-1.94346666c-13.81973333 0-27.15946667 5.7856-36.59946666 15.86986666l-208.064 197.728c-9.02186667 9.63413333-13.78986667 22.3552-13.34613334 35.744 0.44373333 13.3824 6.07146667 25.792 15.8464 34.944a49.96586667 49.96586667 0 0 0 34.2592 13.53386667c13.82186667 0 27.16373333-5.78773333 36.60586667-15.87626667l171.8976-158.61546666 330.14826667 334.53866666c9.44213333 10.09066667 22.78613333 15.8784 36.608 15.8784a49.95626667 49.95626667 0 0 0 34.25493333-13.53173333c9.7792-9.152 15.40693333-21.5616 15.84853333-34.944 0.43733333-13.29493333-4.29653333-25.98613333-13.3376-35.7376z"  horiz-adv-x="1024" />

    
    <glyph glyph-name="chacha" unicode="&#58903;" d="M17.664 876.8v-985.6h985.6V876.8z m735.744-685.056l-51.2-51.2L510.464 332.79999999999995l-192.256-192.256-51.2 51.2L460.8 384l-192.256 192.256 51.2 51.2L510.464 435.2l192.256 192.256 51.2-51.2L561.152 384z"  horiz-adv-x="1024" />

    
    <glyph glyph-name="xiangzuo" unicode="&#58881;" d="M238.01539999999994 418.10916666666634l382.95510000000024-412.52029999999985 176.68844945769544 1.1368683772161603e-13-382.95510000000024 412.52029999999985 382.9550999999998 382.9404000000001L620.9704418285551 801.0495666666667 238.01539999999994 418.10916666666634zM238.01539999999994 418.10916666666634"  horiz-adv-x="1000" />

    
    <glyph glyph-name="dignwei" unicode="&#58896;" d="M512.09064336 552.6436708a93.35895381 93.35895381 0 1 0-66.36359356-27.55776358A93.35895381 93.35895381 0 0 0 512.09064336 552.6436708m0 56.24033379a150.16169092 150.16169092 0 1 1 106.29423106-43.86746074A149.03688428 149.03688428 0 0 1 512.09064336 608.88400459zM769.67137197 724.73909209a358.25092558 358.25092558 0 0 1-515.16145635 0 379.05984932 379.05984932 0 0 1 0-526.97192696L512.09064336-66l257.58072861 263.76716513a379.05984932 379.05984932 0 0 1 1e-8 526.97192696z m-38.80582998-489.85330693l-218.77489863-224.96133428-218.77489776 224.96133428a321.13230557 321.13230557 0 0 0 0 447.11065283 304.82260839 304.82260839 0 0 0 437.5497964 0 321.13230557 321.13230557 0 0 0 0-447.11065283z"  horiz-adv-x="1024" />

    
    <glyph glyph-name="sanjiao" unicode="&#58904;" d="M656.60526707 836.94381782l-446.33706975-446.33706976 444.98458547-444.98458548z"  horiz-adv-x="1024" />

    
    <glyph glyph-name="xiangxia" unicode="&#58883;" d="M539.80387436 145.64551692999999l421.03788282 421.03788285c16.09728997 16.09728997 16.09728997 43.205957 0 60.1486898-16.09728997 16.09728997-43.205957 16.09728997-60.14868979 0l-391.38552289-391.38552288-389.68874568 389.68874567c-16.09728997 16.09728997-43.205957 16.09728997-60.1486898 0-16.09728997-16.09728997-16.09728997-43.205957 0-60.1486898l419.33815983-419.33815985c17.78817558-16.94125989 44.05139983-16.94125989 61.0044429 0Z"  horiz-adv-x="1024" />

    
    <glyph glyph-name="shanchu" unicode="&#58985;" d="M512 896C228.266667 896 0 667.733333 0 384s228.266667-512 512-512 512 228.266667 512 512S795.733333 896 512 896zM725.333333 170.666667c-14.933333-14.933333-36.266667-14.933333-51.2 0L512 332.8 349.866667 170.666667c-14.933333-14.933333-36.266667-14.933333-51.2 0s-14.933333 36.266667 0 51.2l162.133333 162.133333-162.133333 162.133333c-14.933333 14.933333-14.933333 36.266667 0 51.2s36.266667 14.933333 51.2 0l162.133333-162.133333 162.133333 162.133333c14.933333 14.933333 36.266667 14.933333 51.2 0s14.933333-36.266667 0-51.2L563.2 384l162.133333-162.133333c19.2-14.933333 19.2-40.533333 0-51.2z"  horiz-adv-x="1024" />

    
    <glyph glyph-name="bianji" unicode="&#59021;" d="M249.6 57.6c19.2 0 38.4 6.4 57.6 19.2h6.4L134.4 256v-6.4c-12.8-19.2-19.2-38.4-19.2-57.6l-64-198.4 198.4 64z m640 716.8L832 832c-32 32-83.2 32-115.2 0l-57.6-57.6L832 601.6l57.6 57.6c32 32 32 83.2 0 115.2zM774.4 544L601.6 716.8 198.4 313.6l172.8-172.8L774.4 544zM0-64h1024v-64H0v64z"  horiz-adv-x="1024" />

    
    <glyph glyph-name="chakangengduo" unicode="&#58901;" d="M925.8 558.3c-22.5 53.3-54.9 101.3-96 142.4-41.1 41.1-89.1 73.4-142.4 96C632.2 820.1 573.5 832 513 832S393.9 820.1 338.7 796.7c-53.3-22.5-101.3-54.9-142.4-96s-73.4-89.1-96-142.4C76.9 503.1 65 444.4 65 384s11.8-119.1 35.3-174.4c22.5-53.3 54.9-101.3 96-142.4 41.1-41.1 89.1-73.4 142.4-96C393.9-52.200000000000045 452.6-64 513-64s119.1 11.8 174.4 35.3c53.3 22.5 101.3 54.9 142.4 96 41.1 41.1 73.4 89.1 96 142.4C949.2 264.79999999999995 961 323.5 961 384s-11.9 119.1-35.2 174.3zM512.9-23.299999999999955C288-23.299999999999955 105.6 159.10000000000002 105.6 384S288 791.2 512.9 791.2 920.2 608.8 920.2 384 737.9-23.299999999999955 512.9-23.299999999999955zM236.1 383.70000000000005c0-38.2 26.8-69.2 59.9-69.2s59.9 31 59.9 69.2-26.8 69.2-59.9 69.2-59.9-31-59.9-69.2zM455.9 383.70000000000005c0-38.2 26.8-69.2 59.9-69.2s59.9 31 59.9 69.2-26.8 69.2-59.9 69.2-59.9-31-59.9-69.2zM675.6 383.70000000000005c0-38.2 26.8-69.2 59.9-69.2s59.9 31 59.9 69.2-26.8 69.2-59.9 69.2-59.9-31-59.9-69.2z"  horiz-adv-x="1024" />

    
    <glyph glyph-name="youjian" unicode="&#58951;" d="M909.5 753H115C52.6 753 1.5 702.5 1.5 640.7v-505.4C1.5 73.5 52.6 23 115 23h794.5c62.4 0 113.5 50.5 113.5 112.3V640.7c0 61.8-51.1 112.3-113.5 112.3z m-752.8-68.2h710.8c33 0 44.4-7.4 44.4-22.8L547.8 306.5c-10.3-10.4-23.1-15.6-35.9-15.6-12.8 0-34-4.2-44.3 6.1L112.2 662c0 7.7-2.4 22.8 44.5 22.8z m-88.9-68.5l242.2-228L67.8 160.2V616.3z m821.9-524.5H134.5c-36.8 0-44.4 4.8-44.4 22.8l244.3 228.1 101.4-89.1c21.7-20.2 49.1-24.9 76.3-24.9 27.2 0 54.2 4.7 76 22.4l101.7 91.7 244.3-228.1c0-16.4-6.9-22.9-44.4-22.9z m66.6 68.4L737.6 388.4l218.7 228v-456.2z"  horiz-adv-x="1024" />

    
    <glyph glyph-name="kehu" unicode="&#59197;" d="M512 432c88 0 160 72 160 160s-72 160-160 160-160-72-160-160 72-160 160-160z m-19.2-153.6c-8 6.4-12.8 14.4-12.8 25.6 0 17.6 14.4 32 32 32s32-14.4 32-32c0-11.2-4.8-19.2-12.8-25.6l43.2-152c3.2-11.2 0-22.4-8-30.4l-43.2-43.2c-6.4-6.4-16-6.4-22.4 0L457.6 96c-8 8-11.2 19.2-8 30.4l43.2 152zM372.8 416C321.6 457.6 288 520 288 592c0 123.2 100.8 224 224 224s224-100.8 224-224c0-70.4-33.6-134.4-84.8-176C811.2 369.6 928 222.4 928 48c0-52.8-43.2-96-96-96H192c-52.8 0-96 43.2-96 96 0 174.4 116.8 321.6 276.8 368zM832 16c17.6 0 32 14.4 32 32 0 176-144 320-320 320h-64c-176 0-320-144-320-320 0-17.6 14.4-32 32-32h640z"  horiz-adv-x="1024" />

    
    <glyph glyph-name="yonghu" unicode="&#58912;" d="M263.876923 569.107692c0-137.846154 110.276923-248.123077 248.123077-248.123077s248.123077 110.276923 248.123077 248.123077S649.846154 817.230769 512 817.230769 263.876923 706.953846 263.876923 569.107692zM752.246154 324.923077c-19.692308 15.753846-47.261538 15.753846-66.953846-3.938462-43.323077-43.323077-106.338462-70.892308-173.292308-70.892307s-129.969231 27.569231-173.292308 70.892307c-19.692308 19.692308-47.261538 19.692308-66.953846 3.938462-74.830769-63.015385-129.969231-145.723077-149.661538-259.938462-7.876923-47.261538 23.630769-82.707692 70.892307-82.707692h638.03077c47.261538 0 78.769231 39.384615 70.892307 82.707692-15.753846 110.276923-70.892308 192.984615-149.661538 259.938462z"  horiz-adv-x="1024" />

    
    <glyph glyph-name="wenjianxiazai" unicode="&#59984;" d="M256.69335936 577.27148438h447.36328126v-64.16015626h-447.36328126v64.16015625z m1e-8-256.72851563h383.02734374v-64.16015625H256.69335936v64.16015625z m0 0M127.58203124 833.91210938v-898.68164063h450.43945313v64.16015625H191.83007811V769.75195313h641.953125v-385.13671876h64.16015625V833.91210938H127.58203124z m0-1e-8M802.31835937 62.84765625V320.54296875h-64.16015626v-268.15429688l-62.578125 62.57812501-44.03320312-44.03320313 133.68164063-133.68164063 132.71484374 132.71484376-44.29687499 44.20898437-51.328125-51.328125z m-37.26562501-37.35351563l-2.63671875 2.63671875h5.2734375l-2.63671875-2.63671875z m0 0"  horiz-adv-x="1024" />

    
    <glyph glyph-name="zhuye" unicode="&#58932;" d="M899.5 575.03809523L551.8 819.23809523c-23.2 16.3-54.3 16.3-77.5 0.1L124.9 575.03809523C106.8 562.43809523 96 541.73809523 96 519.73809523v-501.2c0-37.2 30.3-67.5 67.5-67.5H366v-0.1h292v0.1h202.6c37.2 0 67.5 30.3 67.5 67.5V519.73809523c0.1 22-10.7 42.6-28.6 55.3z m-305.4-560H430V310.33809523c0 45.2 36.8 82 82 82s82-36.8 82-82v-295.3z m270.1 3.5c0-1.9-1.6-3.5-3.5-3.5H658.1V310.33809523c0 80.5-65.5 146-146 146s-146-65.5-146-146v-295.3H163.5c-1.9 0-3.5 1.6-3.5 3.5V519.73809523c0 1.1 0.6 2.2 1.5 2.9l349.4 244.3c0.6 0.4 1.3 0.6 2 0.6s1.4-0.2 2-0.6l347.7-244.2c0.9-0.7 1.5-1.7 1.5-2.9v-501.3z"  horiz-adv-x="1024" />

    
    <glyph glyph-name="lajixiang" unicode="&#58902;" d="M746.5792 717.56373334H278.704c-43.0752 0-77.97973333-34.90133333-77.97973333-77.97653334v-25.99253333h623.8336v25.99253333c0.00106667 43.0752-34.90133333 77.97653333-77.97866667 77.97653334m-136.20906667 51.984l11.47306667-82.03733334H403.44l11.47306667 82.03733334h195.456m6.24533333 51.984H408.66986667c-21.44853333 0-41.40053333-17.36213333-44.39573334-38.63253334L349.0688 674.13333334c-2.9696-21.2448 12.16-38.60693333 33.60853333-38.60693334h259.93066667c21.44853333 0 36.5792 17.36106667 33.58293333 38.63146667l-15.20533333 108.76693333c-2.97173333 21.2448-22.92266667 38.60693333-44.3712 38.60693334m142.96106667-259.92H265.70666667c-28.58133333 0-49.8784-23.30133333-47.2896-51.78026667l42.5952-468.2624c2.5632-28.48 28.10026667-51.78026667 56.68266666-51.78026666h389.89546667c28.58133333 0 54.1184 23.30133333 56.68266667 51.78026666l42.59413333 468.2624c2.58773333 28.47893333-18.70933333 51.78026667-47.29173333 51.78026667M408.66986667 93.75680001h-77.97973334L304.69653333 457.64266667h103.97226667v-363.88693333z m155.9584 0h-103.97226667V457.64266667h103.97226667v-363.88693333z m129.9648 0h-77.97973334V457.64266667h103.97226667l-25.99253333-363.88693333z"  horiz-adv-x="1024" />

    
    <glyph glyph-name="jifen" unicode="&#58892;" d="M519.7792124 168.63171387c-183.73754883 0-332.68359375 148.94604492-332.68359375 332.68469238C187.09561865 685.05395508 336.04166357 834 519.7792124 834c183.7331543 0 332.68359375-148.94604492 332.68359375-332.68359375-0.20983886-183.64855957-149.03613281-332.47375489-332.68359375-332.68469238z m0 616.53295898c-156.97924805 0-284.23718261-127.25793457-284.23718261-284.23718262 0-156.97485352 127.25793457-284.23278809 284.23718261-284.23278809S804.01090185 343.94934082 804.01090185 500.92858886a284.22070313 284.22070313 0 0 1-83.11047362 201.24206544 284.22729492 284.22729492 0 0 1-201.12121583 83.38952636v-0.39550781zM384.58585302-65.99890135999999a21.12341309 21.12341309 0 0 0-18.48669433 10.93798827l-55.44909668 102.22448731-114.6697998-15.46545411A21.12561035 21.12561035 0 1 0 175.23038428 63.75952147999999l131.64697265 211.23962403a21.11682129 21.11682129 0 0 0 15.84338379 8.67700195 21.51123047 21.51123047 0 0 0 16.97717285-4.52746582 278.36938477 278.36938477 0 0 1 144.09558106-61.48278809 21.12121583 21.12121583 0 0 0 15.48303222-10.19091797 21.12231445 21.12231445 0 0 0 1.4897461-18.4790039l-96.56433105-241.7947998a21.13000489 21.13000489 0 0 0-18.48669434-13.20007324h-1.12939454z m-61.86401367 157.29565429a21.11572266 21.11572266 0 0 0 18.48339844-10.93798829l40.36047364-75.44201659 69.03149414 175.02868652a319.46374511 319.46374511 0 0 0-120.32995606 52.05432129L234.83011573 78.85144043000003l84.49694823 12.06848144 3.39477539 0.37683105zM657.91800635-65.99890135999999c-8.08813477 0.43505859-15.1973877 5.61181641-18.22631836 13.27587889L544.46988623 190.46264648a21.61669922 21.61669922 0 0 0 1.46447754 18.58557129c3.27282714 5.63269043 8.90332031 9.41418457 15.27209472 10.25024414 52.19165039 6.31274414 101.50927734 27.77783203 142.09167481 61.83654786 4.69006347 3.87927247 10.77758789 5.53491211 16.73657227 4.55383301 5.88208008-1.06787109 11.0291748-4.66040039 14.13830566-9.86242676l129.81555176-212.45581055c4.23962403-6.98620606 4.1550293-15.83239747-0.22192383-22.72961425-4.37255859-6.89611817-12.25524903-10.60510254-20.23791504-9.52075196l-111.59033203 16.69482422-55.79516602-102.8133545c-3.65734863-6.78076172-10.63916016-10.99182129-18.22521972-11.00061035z m-65.09289551 247.73840331l68.06689453-176.03503418 40.17590332 75.8770752c4.11767578 7.82666016 12.57275391 12.21240234 21.20141602 11.00170898l83.32250976-12.14099121-95.59863281 153.27355957c-35.15075684-25.41357422-75.02124023-43.23120117-117.16809082-52.35424804v0.37792968zM519.7792124 317.04602050999995c-101.83337402-0.00439453-184.44616699 82.43591309-184.65600586 184.27038574a21.3684082 21.3684082 0 0 0 32.08776856 18.61633301 21.3684082 21.3684082 0 0 0 10.64245605-18.61633301C377.85343115 422.93554688 441.39395849 359.390625 519.7792124 359.390625c78.38085938 0 141.92578125 63.54492188 141.92578125 141.92578125 0.07250977 11.74548339 9.61743164 21.22998047 21.36291504 21.22998047s21.29040527-9.48449708 21.36730957-21.22998047c-0.2142334-101.83447266-82.8215332-184.27038574-184.65600586-184.27038574z"  horiz-adv-x="1024" />

    
    <glyph glyph-name="sousuo" unicode="&#58978;" d="M951.4-10.3L751.2 189.8c57.7 68 92.5 156 92.6 252.2 0 215.5-174.7 390.2-390.2 390.2S63.4 657.5 63.4 442s174.7-390.2 390.2-390.2c96.6 0.1 184.9 35.2 253 93.3L906.7-55c12.3-12.3 32.3-12.3 44.6 0 12.4 12.3 12.4 32.3 0.1 44.7zM453.6 119.1c-178.3 0-322.9 144.6-322.9 322.9s144.6 322.9 322.9 322.9c178.2-0.2 322.7-144.6 322.9-322.9 0-178.3-144.6-322.9-322.9-322.9z"  horiz-adv-x="1024" />

    
    <glyph glyph-name="xiazai" unicode="&#58888;" d="M511.12109375 812.35693359c33.79394531 0 61.19384766-27.39990234 61.19384766-61.19384765v-489.55078125c0-33.82382812-27.39990234-61.19384766-61.19384766-61.19384766s-61.19384766 27.37001953-61.19384766 61.19384766v489.55078125c0 33.79482422 27.39990234 61.19384766 61.19384766 61.19384765zM231.26591797 494.34580078c23.90361328 23.87460937 62.62822266 23.87460937 86.53271484 0l234.28740235-234.28740234c23.93349609-23.90361328 23.93349609-62.62910156 0-86.53271485-23.90361328-23.90361328-62.65810547-23.90361328-86.53183594 0L231.26591797 407.78496094c-23.90361328 23.90361328-23.90361328 62.65722656 0 86.56083984z m555.10839844 0c23.90361328-23.90361328 23.90361328-62.65810547 0-86.56171875L552.08603516 173.52568358999997c-23.90361328-23.90361328-62.65810547-23.90361328-86.53183594 0-23.90361328 23.90361328-23.90361328 62.62910156 0 86.53271485l234.28740234 234.28740234c23.90449219 23.87460937 62.62822266 23.87460937 86.53271485 0zM143.95800781 200.41845703c33.79394531 0 61.19384766-27.37089844 61.19384766-61.19384766v-122.38769531c0-33.82382812-27.39990234-61.19472656-61.19384766-61.19472656s-61.19384766 27.37089844-61.19384765 61.19472656V139.22460937000005c0 33.82294922 27.39902345 61.19384766 61.19384765 61.19384766z m734.32617188 0c33.82382812 0 61.19384766-27.37089844 61.19384765-61.19384766v-122.38769531c0-33.82382812-27.37001953-61.19472656-61.19384765-61.19472656-33.82294922 0-61.19384766 27.37089844-61.19384766 61.19472656V139.22460937000005c0 33.82294922 27.37089844 61.19384766 61.19384766 61.19384766z m-734.32617188-122.38769531h734.32617188c33.82382812 0 61.19384766-27.42978516 61.19384765-61.19384766 0-33.82382812-27.37001953-61.19472656-61.19384765-61.19472656H143.95800781c-33.79394531 0-61.19384766 27.37089844-61.19384765 61.19472656 0 33.7640625 27.39902345 61.19384766 61.19384765 61.19384766z"  horiz-adv-x="1024" />

    
    <glyph glyph-name="zoushi2" unicode="&#59065;" d="M909.388408 896H113.92938C51.165889 896 0 844.834111 0 782.07062v-796.14124c0-62.763491 51.165889-113.92938 113.92938-113.92938h796.14124c62.763491 0 113.92938 51.165889 113.92938 113.92938V782.07062C1023.317788 844.834111 972.151899 896 909.388408 896zM341.105929 99.85876099999996H227.176549V498.270486H341.105929v-398.411725z m227.176549 0H455.03531V668.823451h113.92938v-568.96469z m227.858761 0H682.211859V327.71752200000003h113.92938v-227.858761z"  horiz-adv-x="1025" />

    
    <glyph glyph-name="shenling" unicode="&#58936;" d="M211.73333333 547.2h178.08v-63.84H211.73333333zM211.73333333 441.6h178.08v-63.84H211.73333333zM211.73333333 334.08000000000004h178.08v-63.84H211.73333333zM443.57333333 321.12c-3.84 0-3.84-49.92-3.84-49.92h178.08c-1.92 0-1.92 49.92-4.8 49.92 0 0-60 15.84-60 47.04 0 29.76 38.88 41.76 38.88 102.72 0 48.96-14.88 77.76-63.84 77.76s-63.84-28.8-63.84-77.76c0-60 38.88-72.96 38.88-102.72 0.48-31.2-59.52-47.04-59.52-47.04zM250.61333333 180H124.37333333V636.96h599.52V456.48c16.8 15.36 36 24.96 55.68 26.88V623.04c0 38.88-31.68 70.56-70.56 70.56H140.21333333c-38.88 0-70.56-31.68-70.56-70.56V196.79999999999995c0-38.88 31.68-70.56 70.56-70.56h504.48l-48.48 53.76h-345.6zM989.33333333 351.84000000000003c-1.92 1.44-47.04 25.92-150.72 25.92-103.68 0-148.8-24.96-150.72-25.92-5.76-3.84-9.6-9.6-9.12-16.32 0-1.92 2.4-48 21.12-106.08 11.04-34.56 25.92-65.76 43.68-94.08 22.56-35.52 50.4-65.28 82.56-88.8 3.36-2.4 7.68-3.84 11.52-3.84 3.84 0 8.16 1.44 11.52 3.84 32.16 23.52 60 53.28 82.56 88.8 18.24 27.84 33.12 60 43.68 94.08 19.2 58.08 21.12 104.16 21.12 106.08 1.92 6.72-1.44 13.44-7.2 16.32z m-80.16-86.4l-84.48-79.2c-2.4-2.4-5.76-3.84-9.12-3.84s-6.24 1.44-9.12 3.84l-39.36 36.96c-5.28 4.8-5.28 12 0 16.8l7.68 7.2c2.4 2.4 5.76 3.84 9.12 3.84s6.24-1.44 9.12-3.84l22.56-21.12 67.68 63.36c2.4 2.4 5.76 3.84 9.12 3.84s6.24-1.44 9.12-3.84l7.68-7.2c5.28-4.8 5.28-12 0-16.8z"  horiz-adv-x="1024" />

    
    <glyph glyph-name="fenpei" unicode="&#58893;" d="M975.03125 533.20833333c-0.09375 0.09375-0.1875 0.28125-0.28125 0.375L738.21875 803.67708333c-11.4375 13.6875-27.5625 21.5625-44.53125 21.65625h-0.28125c-16.96875 0-33.1875-7.875-44.8125-21.5625-10.40625-11.8125-16.03125-27.65625-16.03125-44.625v-113.90625H542c-16.59375 0-30-13.40625-30-30s13.40625-30 30-30h120.65625c16.59375 0 30 13.40625 30 30V759.14583333c0 2.0625 0.46875 3.65625 0.84375 4.5l235.875-269.34375c2.34375-2.90625 2.34375-8.90625 0-11.8125L693.6875 213.05208332999996c-0.5625 1.03125-1.03125 2.625-1.03125 4.78125V374.11458332999996c0 16.59375-13.40625 30-30 30H391.34375V530.39583333c0 36.375-27.28125 66-60.75 66-17.25 0-33.5625-7.6875-44.8125-21L50.1875 304.92708332999996l-0.28125-0.28125c-21.28125-25.125-21.28125-64.40625 0-89.53125 0.09375-0.1875 0.28125-0.375 0.46875-0.46875l235.5-266.34375c11.4375-13.6875 27.5625-21.5625 44.4375-21.65625h0.28125c16.96875 0 33.1875 7.875 44.8125 21.5625 10.40625 11.8125 16.03125 27.65625 16.03125 44.625V105.33333332999996H483.875c16.59375 0 30 13.40625 30 30s-13.40625 30-30 30H361.34375c-16.59375 0-30-13.40625-30-30v-142.6875c0-2.0625-0.46875-3.65625-0.84375-4.5L95.5625 253.92708332999996c-2.25 2.90625-2.25 8.90625 0 11.8125l234.75 269.34375c0.5625-1.03125 1.03125-2.625 1.03125-4.78125v-156.28125c0-16.59375 13.40625-30 30-30h271.3125v-126.28125c0-36.375 27.28125-66 60.75-66 17.25 0 33.5625 7.59375 44.71875 21l236.53125 270.46875c0.09375 0.09375 0.1875 0.28125 0.28125 0.375 21.375 25.125 21.375 64.5 0.09375 89.625z"  horiz-adv-x="1024" />

    
    <glyph glyph-name="feijicopy" unicode="&#58977;" d="M1090.56-1.6384a26.9824 26.9824 0 0 0-11.4176 2.4064l-458.6496 197.2224a28.7744 28.7744 0 1 0 22.784 52.736l421.4784-181.248 48.9984 707.1744-651.1616-507.0848a28.7232 28.7232 0 0 0-28.8256-3.7888L17.6128 440.576A28.7744 28.7744 0 0 0 18.9952 494.08L1139.1488 894.3104a28.7744 28.7744 0 0 0 38.4-28.9792l-1.2288-16.5376c1.9968-6.656 1.536-13.9264-1.3824-20.2752L1119.232 25.0368a28.8768 28.8768 0 0 0-13.6704-22.5792 29.4912 29.4912 0 0 0-15.0016-4.096zM108.032 464.7936l332.4928-139.6224L1053.696 802.7136l-945.5616-337.92zM491.52-126.5664a28.672 28.672 0 0 0-28.8256 28.7232v301.056a28.672 28.672 0 1 0 57.344 0v-235.8784l220.7744 201.5232a28.672 28.672 0 0 0 40.6528-1.9968 28.9792 28.9792 0 0 0-1.9968-40.8064l-268.6976-245.1968a28.8768 28.8768 0 0 0-19.2512-7.424z"  horiz-adv-x="1177" />

    
    <glyph glyph-name="guanbi" unicode="&#58884;" d="M570.640625 395.63020833L879.875 704.86458334c15.609375 15.609375 15.609375 41.34375001 0 56.95312499l-1.6875 1.6875c-15.609375 15.609375-41.34375001 15.609375-56.953125 0L512 453.84895833 202.765625 763.50520833c-15.609375 15.609375-41.34375001 15.609375-56.953125 0l-1.6875-1.6875c-16.03125001-15.609375-16.03125001-41.34375001 0-56.95312501l309.234375-309.23437499L144.125 86.39583332999996c-15.609375-15.609375-15.609375-41.34375001 0-56.953125l1.6875-1.6875c15.609375-15.609375 41.34375001-15.609375 56.953125 0L512 336.98958331999995 821.234375 27.75520832999996c15.609375-15.609375 41.34375001-15.609375 56.953125 0l1.6875 1.6875c15.609375 15.609375 15.609375 41.34375001 0 56.953125L570.640625 395.63020833z"  horiz-adv-x="1024" />

    
    <glyph glyph-name="shexiangtou" unicode="&#58891;" d="M520.896 80.704c197.952 0 358.976 166.08 358.976 370.112S718.784 820.928 520.896 820.928 162.048 654.912 162.048 450.816s160.96-370.112 358.848-370.112z m0 676.224c162.688 0 294.976-137.344 294.976-306.112 0-168.832-132.288-306.112-294.976-306.112-162.624 0-294.848 137.344-294.848 306.112-0.064 168.768 132.224 306.112 294.848 306.112zM824.256 149.888a32.128 32.128 0 0 1-29.888-56.64c21.888-11.584 27.264-20.736 27.52-22.528-1.92-20.864-106.688-69.824-300.992-69.824-191.488 0-299.072 49.536-300.864 69.824 0.128 1.664 5.056 10.432 26.176 21.888a32 32 0 0 1-30.464 56.256c-49.344-26.688-59.712-57.216-59.712-78.144 0-91.968 189.12-133.824 364.864-133.824 175.808 0 364.992 41.856 364.992 133.824 0 21.248-10.688 52.224-61.632 79.168zM520.96 277.184a173.632 173.632 0 1 1 0.128 347.264 173.632 173.632 0 0 1-0.128-347.264z m-59.968 315.648a70.976 70.976 0 1 0 0-141.952 70.976 70.976 0 0 0 0 141.952z"  horiz-adv-x="1024" />

    
    <glyph glyph-name="guolv" unicode="&#58934;" d="M132.2 313.79999999999995c0-23.85 18.45-42.3 42.3-42.3h154.8c23.85 0 42.3 18.45 42.3 42.3V468.6c0 23.85-18.45 42.3-42.3 42.3H174.5c-23.85 0-42.3-18.45-42.3-42.3v-154.8z m-56.25 0V468.6C75.95 523.5 119.6 567.15 174.5 567.15h154.8c54.9 0 98.55-43.65 98.55-98.55v-154.8c0-54.9-43.65-98.55-98.55-98.55H174.5c-54.9 0-98.55 43.65-98.55 98.55z m604.8-281.25c0-23.85 18.45-42.3 42.3-42.3H849.5c23.85 0 42.3 18.45 42.3 42.3V159c0 23.85-18.45 42.3-42.3 42.3h-126.45c-23.85 0-42.3-18.45-42.3-42.3v-126.45z m-56.25 0V159c0 54.9 43.65 98.55 98.55 98.55H849.5c54.9 0 98.55-43.65 98.55-98.55v-126.45c0-54.9-43.65-98.55-98.55-98.55h-126.45c-54.9 0-98.55 43.65-98.55 98.55zM680.75 609c0-23.85 18.45-42.3 42.3-42.3H849.5c23.85 0 42.3 18.45 42.3 42.3V735.45c0 23.85-18.45 42.3-42.3 42.3h-126.45c-23.85 0-42.3-18.45-42.3-42.3V609zM624.5 609V735.45C624.5 790.35 668.15 834 723.05 834H849.5c54.9 0 98.55-43.65 98.55-98.55V609c0-54.9-43.65-98.55-98.55-98.55h-126.45c-54.9 0-98.55 43.65-98.55 98.55zM647 116.70000000000005v-56.25h-78.75c-39.6 0-70.2 31.05-70.2 70.2V636.9c0 39.15 31.05 70.2 70.2 70.2h74.7v-56.25h-74.7c-8.55 0-13.95-5.85-13.95-13.95v-506.25c0-8.55 5.85-13.95 13.95-13.95H647zM392.3 356.1V411.9h140.4v-56.25H392.3z"  horiz-adv-x="1024" />

    
    <glyph glyph-name="zoushi3" unicode="&#58946;" d="M900.36148148 753.72013037h-776.72296296c-62.75921541 0-114.33362015-50.331648-114.33362015-112.46948504v-515.12266903c0-59.65232355 47.22475615-108.11983645 106.87707971-111.84810667h791.01466547c59.65232355 3.72827022 106.8770797 52.19578311 106.8770797 111.84810667V641.25064533c0.62137837 62.13783703-50.331648 112.46948503-113.71224177 112.46948504z m-106.25570133-423.15867022c-19.26272948 0-35.41856711 15.53445925-35.41856712 35.4185671V444.8950803L594.64332325 278.36567703000003c-6.2137837-6.2137837-15.53445925-10.5634323-24.8551348-10.56343228s-18.64135111 3.72827022-24.85513482 10.56343228L425.62840652 398.91308089l-196.35556504-199.46245689c-6.83516208-6.83516208-15.53445925-10.5634323-24.85513481-10.5634323s-18.01997275 3.72827022-24.85513482 9.94205393c-13.67032415 13.67032415-14.29170252 36.03994548-0.62137837 49.71026962L400.15189333 474.0998637c6.2137837 6.2137837 15.53445925 10.5634323 24.85513482 10.5634323s18.64135111-3.72827022 24.85513482-10.5634323l118.68326873-120.54740385 140.43151171 142.91702518h-81.40056652c-19.26272948 0-35.41856711 15.53445925-35.41856711 35.41856712s15.53445925 35.41856711 35.41856711 35.4185671h165.28664652c19.26272948 0 35.41856711-15.53445925 35.41856711-35.4185671v-165.28664652c1.24275675-20.50548622-14.91308089-36.03994548-34.17581037-36.03994548z"  horiz-adv-x="1024" />

    
    <glyph glyph-name="xiangyou" unicode="&#58882;" d="M828.65126666 381.89083334l-382.9551 412.5203-176.68844945 0 382.95509999-412.5203-382.9551-382.9404L445.69622482-1.0495666599999822 828.65126666 381.89083334zM828.65126666 381.89083334"  horiz-adv-x="1000" />

    
    <glyph glyph-name="jiantou" unicode="&#58886;" d="M38.29170707 404.71039795l621.31194136 1e-8L659.60364842 347.18151435000004 38.29170707 347.18151435000004l2e-8 57.5288836zM656.10601111 576.86162915L990.65731211 380.37911876l-334.551301-201.79284823 0 398.27535862z"  horiz-adv-x="1024" />

    
    <glyph glyph-name="chuangjianren" unicode="&#58962;" d="M689.38666667 244.90666667000005c25.81333333 13.86666667 55.36 21.76 86.82666666 21.76h0.10666667c3.2 0 4.69333333 3.84 2.34666667 5.97333333-32.85333333 29.44-69.97333333 53.01333333-110.61333334 70.18666667-0.42666667 0.21333333-0.85333333 0.32-1.28 0.53333333C733.01333333 391.46666667 776.10666667 469.65333333 776.10666667 557.86666667c0 146.13333333-118.18666667 264.53333333-264 264.53333333S248.21333333 704 248.21333333 557.86666667c0-88.21333333 43.09333333-166.4 109.44-214.50666667-0.42666667-0.21333333-0.85333333-0.32-1.28-0.53333333-47.68-20.16-90.45333333-49.06666667-127.25333333-85.97333334-36.8-36.8-65.6-79.68-85.76-127.46666666C123.62666667 82.66666667000004 113.06666667 33.06666667000002 112-17.91999999999996c-0.10666667-4.8 3.73333333-8.74666667 8.53333333-8.74666667h63.89333334c4.58666667 0 8.42666667 3.73333333 8.53333333 8.32 2.13333333 82.34666667 35.09333333 159.46666667 93.44 217.92C346.66666667 260.05333333 426.88 293.33333332999996 512.21333333 293.33333332999996c60.48 0 118.50666667-16.74666667 168.53333334-48.10666666 2.66666667-1.6 5.86666667-1.81333333 8.64-0.32zM512.21333333 374.4c-48.85333333 0-94.82666667 19.09333333-129.49333333 53.76-34.56 34.66666667-53.65333333 80.74666667-53.65333333 129.70666667 0 48.96 19.09333333 95.04 53.65333333 129.70666666S463.25333333 741.33333333 512.21333333 741.33333333c48.96 0 94.82666667-19.09333333 129.49333334-53.76 34.56-34.66666667 53.65333333-80.74666667 53.65333333-129.70666666 0-48.96-19.09333333-95.04-53.65333333-129.70666667C607.04 393.49333333 561.06666667 374.4 512.21333333 374.4zM904.53333333 120.53333333h-89.6v89.6c0 4.69333333-3.84 8.53333333-8.53333333 8.53333334h-59.73333333c-4.69333333 0-8.53333333-3.84-8.53333334-8.53333334v-89.6h-89.6c-4.69333333 0-8.53333333-3.84-8.53333333-8.53333333v-59.73333333c0-4.69333333 3.84-8.53333333 8.53333333-8.53333334h89.6v-89.6c0-4.69333333 3.84-8.53333333 8.53333334-8.53333333h59.73333333c4.69333333 0 8.53333333 3.84 8.53333333 8.53333333v89.6h89.6c4.69333333 0 8.53333333 3.84 8.53333334 8.53333334v59.73333333c0 4.69333333-3.84 8.53333333-8.53333334 8.53333333z"  horiz-adv-x="1024" />

    
    <glyph glyph-name="zoushi1" unicode="&#58885;" d="M853.285 895.902h136.556c9.008 0.733 17.88-2.673 24.397-9.365 6.517-6.692 10.06-16.037 9.742-25.695v-140.97c0-20.17-15.284-36.521-34.139-36.521-18.854 0-34.139 16.35-34.139 36.52v63.547L641.623 438.296c-10.066-8.1-15.857-8.1-18.528-9.262-9.826 0-19.748 3.123-29.266 9.262l-218.49 154.848L68.088 318.50800000000004c-15.193-7.344-32.603-7.344-47.795 0-13.724 15.873-13.724 40.369 0 56.242l327.735 295.818c13.274 13.92 34.52 13.92 47.794 0l218.49-154.848L901.08 825.417h-47.795c-12.127-0.591-23.578 5.994-29.807 17.141-6.228 11.148-6.228 25.055 0 36.202 6.23 11.148 17.68 17.733 29.807 17.142zM68.147 229h63.706C169.49 229 200 201.11800000000005 200 160.70799999999997v-221.895c0-40.41-30.51-66.813-68.147-66.813H68.147C30.51-128 0-101.59699999999998 0-61.18700000000001V151.86199999999997C0 192.27200000000005 30.51 229 68.147 229z m534 133h63.706C703.49 362 734 334.139 734 293.75800000000004v-354.994c0-40.38-30.51-66.764-68.147-66.764h-63.706C564.51-128 534-101.61699999999996 534-61.23599999999999V284.918c0 40.38 30.51 77.082 68.147 77.082z m-267 67h63.706C436.49 429 467 401.157 467 360.803V-61.27999999999997c0-40.354-30.51-66.72-68.147-66.72h-63.706C297.51-128 267-101.63400000000001 267-61.27999999999997V351.97C267 392.323 297.51 429 335.147 429z m535 67h63.706c37.637 0 68.147-27.859 68.147-68.236v-489.006c0-40.377-30.51-66.758-68.147-66.758h-63.706C832.51-128 802-101.61900000000003 802-61.24199999999996V418.925C802 459.302 832.51 496 870.147 496z"  horiz-adv-x="1024" />

    
    <glyph glyph-name="chengyuan" unicode="&#58894;" d="M987.61307307 31.01120960000003c-17.33999147 130.985376-91.9611168 242.11588373-193.79727574 296.5852448 44.64234667 35.39493333 72.01346773 88.51189333 72.01346774 145.64239573 0 89.9385184-67.11142187 168.15185707-159.5375296 185.9404672-17.44696107 3.32806507-33.95957547-7.96159467-37.28764054-25.22081386-3.3586272-17.29087253 7.96159467-33.95957547 25.22081387-37.28764054 62.5401088-12.06682667 107.91377813-63.97109973 107.91377813-123.4320128 0-51.95775787-35.19300053-99.12262293-87.6408544-117.6174496-13.7095744-0.68002133-25.89537707-10.08788907-29.38389653-24.06925333-4.22966613-17.07365973 6.1267392-34.36453227 23.20039787-38.62476053 101.38535787-25.28957973 182.35370987-117.25942933 209.60476373-234.2372448L101.5095872 58.690140799999995c13.77724907 126.8222944 108.59816533 234.02003093 235.6060192 261.13791787 14.9386336 3.1872576 25.17715307 16.3728992 25.1858848 31.05284053 0.19756587 13.14088853-7.79240853 25.55482133-20.8328768 30.36845333-66.36481813 24.44364693-110.92966613 88.1964416-110.92966613 158.63592854 0 93.42157973 76.00627307 169.42785173 169.45841493 169.42785173 93.42157973 0 169.42785173-76.00627307 169.42785173-169.42785173 0-70.0476288-44.07475307-133.47624-109.7977536-158.21787414-2.3642464-0.78371627-4.62589013-1.84577173-6.74017706-3.1534208-0.09387093-0.05785067-0.18883413-0.11461013-0.28270507-0.17355306-0.25432533-0.1615456-0.50537707-0.32636693-0.75533653-0.49446187-0.24341013-0.1615456-0.48463787-0.32527467-0.72149867-0.4933696-0.0949632-0.06767467-0.18774293-0.13644053-0.28161387-0.20520747-3.77122453-2.73099947-6.834048-6.21624427-9.05312213-10.16320426-0.00436587-0.00654933-0.00764053-0.01418987-0.0120064-0.0207392-0.25105067-0.4475264-0.4911872-0.90050987-0.72040747-1.3589504-0.00873173-0.01855573-0.01855573-0.03711147-0.02728853-0.05566827-0.22922027-0.460624-0.44643413-0.92561493-0.6527328-1.39606293-0.00218347-0.00545813-0.00436587-0.0109152-0.00654933-0.01637334-2.50832853-5.72833173-3.34225493-12.19453547-2.139392-18.61598613 0.01418987-0.0753152 0.02510507-0.1506304 0.04038613-0.2248544 0.07094933-0.3645696 0.15281387-0.728048 0.23795307-1.09261867 0.03711147-0.16372907 0.07204053-0.32745813 0.11242773-0.49009493 0.0753152-0.30126187 0.1593632-0.60252267 0.24341013-0.90378453 0.06003413-0.2150304 0.1178848-0.43115307 0.183376-0.64509227 0.08295573-0.27615573 0.17464427-0.55231253 0.2663328-0.82846827 0.074224-0.2237632 0.14735573-0.4475264 0.22703787-0.66910613 0.03711147-0.10369493 0.06767467-0.20848107 0.1058784-0.31217707 0.0654912-0.17682773 0.1397152-0.34710507 0.20848107-0.5228416 0.084048-0.21612267 0.16809493-0.43115307 0.2565088-0.64400106 0.11461013-0.2783392 0.2346784-0.55340373 0.35692906-0.82628587 0.0873216-0.19538347 0.17573547-0.39076693 0.267424-0.58505813 0.138624-0.29471253 0.28161387-0.58614933 0.4289696-0.8754048 0.08077333-0.15827093 0.16263787-0.31545067 0.2455936-0.47263147 0.16809493-0.31763413 0.3405568-0.6309024 0.51847467-0.940896 0.06985813-0.12115947 0.1397152-0.24013547 0.21066453-0.36020373 0.19865813-0.33509867 0.40058987-0.66692267 0.6101632-0.99219734 0.05894293-0.09277973 0.12006827-0.18446827 0.1801024-0.27615573 0.2248544-0.341648 0.45298347-0.67892907 0.68984534-1.01075413 0.05785067-0.08077333 0.1167936-0.1604544 0.17573546-0.24122774 0.24122773-0.3307328 0.48572907-0.65819093 0.737872-0.97800746 0.07094933-0.09059627 0.14408107-0.17901013 0.21721387-0.2685152 0.24231893-0.30126187 0.48791253-0.5981568 0.74005547-0.8885024 0.10260373-0.118976 0.20957333-0.2346784 0.31435946-0.3525632 0.2248544-0.25105067 0.4497088-0.49991893 0.68220374-0.74333014 0.15827093-0.16591253 0.3209088-0.32745813 0.4824544-0.4911872 0.183376-0.18446827 0.36675307-0.36893547 0.554496-0.54903786 0.23249493-0.22267093 0.470448-0.4377024 0.70949226-0.653824 0.12225067-0.11024427 0.2445024-0.22267093 0.36893547-0.3307328 0.31435947-0.27506453 0.63745173-0.54248853 0.9638176-0.80554667 0.0534848-0.0425696 0.10478613-0.0873216 0.15827093-0.1288 2.72445013-2.16886293 5.838576-3.90984853 9.2616032-5.10725333 0.01418987-0.00545813 0.02837973-0.009824 0.0436608-0.01528107 0.44425173-0.15499627 0.89396053-0.3001696 1.3491264-0.43661013 0.0654912-0.019648 0.1298912-0.03820373 0.19538347-0.05675947 0.41477973-0.12115947 0.83174293-0.2357696 1.25416427-0.3405568 0.09932907-0.02510507 0.19865813-0.04802667 0.2979872-0.07094933 0.26087467-0.06221653 0.51956693-0.13098347 0.78371626-0.18774294 105.30175573-22.42213973 190.88617387-100.17048853 223.3841952-202.8274752 4.29188267-13.558944 16.82479147-22.23548907 30.35208-22.23548906 3.17197653 0 6.4061696 0.46608213 9.60980054 1.49320853 16.76257387 5.28735467 26.0612896 23.20039787 20.74337173 39.96188053-31.77652267 100.44882773-105.511328 181.19778347-199.9076416 222.9235712 53.2577664 43.50170133 86.02321173 109.47357013 86.02321173 180.36822294 0 128.53271573-104.58571413 233.11842987-233.11842986 233.11842986-128.56327893 0-233.14899307-104.58571413-233.14899307-233.11842986 0-71.08894507 32.92262613-137.20052907 86.4216192-180.6913152C124.05725227 301.95976853 36.10858667 171.99278613 36.10858667 26.843759999999975c0-17.6019584 14.2433312-31.84528853 31.84528853-31.84528853l864.83290773 0c4.11178027 0 8.03691093 0.78589867 11.64331414 2.2016096 3.61841067-1.4233504 7.53371627-2.2016096 11.58764693-2.2016096 1.3687744 0 2.79867413 0.09387093 4.19801173 0.2794304C977.6616256-2.4200682700000016 989.91510293 13.594810670000015 987.61307307 31.01120960000003z"  horiz-adv-x="1024" />

    
    <glyph glyph-name="daoru" unicode="&#58943;" d="M655.168 567.04c-181.92 0-329.38666667-147.47733333-329.38666667-329.38666667 0-181.92 147.46666667-329.38666667 329.38666667-329.38666666s329.38666667 147.46666667 329.38666667 329.38666666-147.46666667 329.38666667-329.38666667 329.38666667z m-83.60533333-368.07466667l156.16-166.336L670.93333333-20.672000000000025 453.248 211.21066667000002l-26.66666667 26.688 0.832 0.832-0.832 0.88533333 28.224 26.48533333 216.07466667 216.05333334 55.02933333-55.06133334-150.29333333-150.28266666h329.25866667v-77.84533334H571.56266667zM603.46666667 859.73333333h-287.04C163.65866667 859.73333333 39.44533333 735.456 39.44533333 582.688v-431.712c0-75.21066667 61.12-136.416 136.33066667-136.416h122.69866667v71.88266667H175.76533333c-35.56266667 0-64.512 28.94933333-64.512 64.53333333V582.688c0 113.14133333 92.05333333 205.16266667 205.16266667 205.16266667H603.46666667c35.616 0 64.56533333-28.94933333 64.56533333-64.512v-80.18133334h71.81866667v80.18133334C739.86133333 798.56 678.688 859.73333333 603.46666667 859.73333333zM206.592 483.904h131.712v-71.88266667H206.592zM206.592 632.96h271.25333333v-71.88266667h-271.25333333z"  horiz-adv-x="1024" />

    
    <glyph glyph-name="shijian" unicode="&#58899;" d="M109.83235273 590.81470547V688.09411729a48.15 48.15 0 0 0 47.64705909 48.62647089h71.47058818V785.34705908h-71.47058818a96.24705908 96.24705908 0 0 1-95.29411729-97.27941181v-656.47058819a96.3264709 96.3264709 0 0 1 95.29411729-97.27941181H919.64705908a96.24705908 96.24705908 0 0 1 95.29411728 97.2V688.09411729a96.24705908 96.24705908 0 0 1-95.29411728 97.27941182h-71.47058819v-48.65294093h71.47058819a48.1764709 48.1764709 0 0 0 47.64705821-48.62647089v-97.27941182m0-48.62647002v-510.67058818a48.15 48.15 0 0 0-47.64705821-48.62647091H157.45294092a48.15 48.15 0 0 0-47.64705821 48.62647091V542.18823545m655.01470547 145.90588184A36.13235273 36.13235273 0 0 0 729.05882363 724.57058818V797.52352911a35.73529453 35.73529453 0 1 0 71.47058819 0v-72.95294093a36.13235273 36.13235273 0 0 0-35.70882364-36.47647089zM395.52941182 785.34705908h285.88235273v-48.6264709H395.52941182V785.34705908zM312.27941182 688.09411729a36.13235273 36.13235273 0 0 0-35.73529453 36.47647089V797.52352911a35.73529453 35.73529453 0 1 0 71.47058818 0v-72.95294093a36.13235273 36.13235273 0 0 0-35.73529365-36.47647089zM524.34411728 173.90294092h-118.93235274v1.13823544l60.11470635 54.26470635q61.41176455 55.58823545 61.41176456 106.27941182a75.54705908 75.54705908 0 0 1-24.93529453 60.11470547 99.34411729 99.34411729 0 0 1-67.55294092 21.73235273 148.55294092 148.55294092 0 0 1-84.12352911-24.61764726v-53.4970582a109.03235273 109.03235273 0 0 0 71.65588184 29.83235273 37.74705908 37.74705908 0 0 0 44.1-41.18823545 66.41470547 66.41470547 0 0 0-10.42941181-35.23235273 232.1735291 232.1735291 0 0 0-36.47647003-41.95588272l-82.82647089-79.65v-47.35588183h187.94117636v50.13529365z m48.99705908-40.44705821a150.3 150.3 0 0 1 71.65588271-14.71764726 128.03823545 128.03823545 0 0 1 80.12647003 23.10882363 76.55294092 76.55294092 0 0 1 30.07058818 64.3235291A63.26470547 63.26470547 0 0 1 737.22058818 251.64705907999996a76.15588271 76.15588271 0 0 1-48.20294091 22.10294092v1.03235273a67.68529453 67.68529453 0 0 1 57.33529365 71.20588272 61.6764709 61.6764709 0 0 1-25.49117638 52.49117637 108.71470547 108.71470547 0 0 1-66.44117636 18.92647089 150.22058818 150.22058818 0 0 1-70.1735291-15.48529453V352.23529453000003a97.65 97.65 0 0 0 56.38235273 19.00588184q44.47058818 0 44.47058819-36.9264709 0-39.15-58.0764709-39.15h-23.71764639v-46.42941094h25.67647002a88.94117636 88.94117636 0 0 0 47.64705908-10.8264709 34.88823545 34.88823545 0 0 0 17.02058819-31.31470634 36.26470547 36.26470547 0 0 0-14.32058819-30.75882276 62.81470547 62.81470547 0 0 0-38.7-10.8 109.21764727 109.21764727 0 0 0-67.36764727 21.62647002v-53.12647002z"  horiz-adv-x="1084" />

    
    <glyph glyph-name="excel" unicode="&#59037;" d="M878.93942844 555.42857156h-149.48571375v-91.584h149.48571375V555.42857156z m0-117.66857156h-149.48571375v-93.44914312h149.48571375V437.76z m0 235.44685688h-149.48571375v-91.58400001h149.48571375V673.20685688z m0-465.16114219h-149.48571375v-93.44914313h149.48571375v93.44914313z m69.12 558.50057062H589.45828531c-3.73028531 0-7.488 0-11.24571375-1.86514219V863.616L45.85142844 757.19314313v-722.93485782l530.55085687-104.55771375v95.17714313c3.73028531-1.83771469 7.488-1.83771469 11.21828625-1.83771469H946.19428531c18.70628531 0 31.81714312 14.94857156 31.81714313 33.54514313V732.97371469a30.61028531 30.61028531 0 0 1-29.952 33.57257062zM404.56228531 241.61828531000003l-63.52457062 3.75771469-48.54857156 121.39885687-52.27885782-113.91085687-59.76685687 3.73028531 76.608 138.24-69.12 151.35085781 59.79428625 3.75771375 41.03314218-113.93828531h7.488l44.79085782 121.39885688 63.52457062 3.75771468-80.36571375-160.59428625 80.36571375-158.94857156z m534.144-177.408h-362.33142844v50.38628625h121.39885782v93.44914313h-121.39885781v20.57142844h121.39885781v91.61142843h-121.39885781v24.32914313h121.39885781v93.44914218h-121.39885781v26.19428626h121.39885781v91.584h-121.39885781v24.32914218h121.39885781V671.69828531h-121.39885781V723.9771431199999h362.33142843V64.18285688000003z m-59.76685687 255.90857156h-149.48571375v-91.61142843h149.48571375v91.61142843z"  horiz-adv-x="1024" />

    
    <glyph glyph-name="dianhua" unicode="&#58897;" d="M682.25 430.738c0-16.695 11.115-27.811 27.81-27.811s27.812 11.116 27.812 27.811A167.395 167.395 0 0 1 570.96 597.65c-16.695 0-27.811-11.116-27.811-27.811s11.16-27.812 27.811-27.812a111.597 111.597 0 0 0 111.29-111.289z m111.289 0c0-16.695 11.115-27.811 27.81-27.811s27.812 11.116 27.812 27.811c0 152.984-125.217 278.201-278.2 278.201-16.696 0-27.812-11.16-27.812-27.855s11.16-27.811 27.811-27.811c122.405 0 222.579-100.174 222.579-222.535zM417.976 528.1c30.623 30.579 33.391 77.898 5.58 111.289L337.31 747.866c-27.811 36.16-80.666 41.74-116.869 13.928-2.768-2.812-5.536-2.812-5.536-5.58l-75.13-75.13c-72.318-72.318 30.623-267.041 217.042-453.417C543.15 41.29200000000003 735.06-58.879999999999995 807.378 10.669999999999959l75.13 75.13c33.392 33.391 33.392 86.246 0 116.825l-5.536 5.58-108.52 86.246c-33.348 27.81-80.623 25.043-111.246-5.58l-47.275-47.319c-50.087 30.623-94.593 64.014-133.564 102.941-38.927 38.971-72.275 83.478-102.898 133.565l44.507 50.043z m-38.927 75.13c8.348-11.16 8.348-27.855-2.812-36.203l-61.202-63.97a29.569 29.569 0 0 1-5.536-33.392 721.425 721.425 0 0 1 122.405-164.1 721.512 721.512 0 0 1 164.1-122.405 29.569 29.569 0 0 1 33.39 5.58l63.971 63.97c11.16 11.116 25.043 11.116 36.203 2.769l108.477-89.014s2.768 0 2.768-2.768a26.889 26.889 0 0 0 0-38.971l-75.13-75.13c-36.115-36.115-208.606 55.666-372.75 217.042-164.1 161.332-253.114 336.548-216.955 372.75l77.854 77.899c11.16 8.348 30.623 8.348 38.971-5.58l86.246-108.521z"  horiz-adv-x="1024" />

    


  </font>
</defs>
</svg>
